<?xml version="1.0" encoding="UTF-8"?><svg id="Layer_1" xmlns="http://www.w3.org/2000/svg" viewBox="0 0 1080 1080"><defs><style>.cls-1{fill:#edecec;}.cls-2{fill:#655553;}.cls-3{fill:#6b4600;}.cls-4{fill:#a05248;}.cls-5{fill:#856660;}.cls-6{fill:#b5766e;}.cls-7{fill:#be6e30;}.cls-8{fill:#aaacb1;}.cls-9{fill:#a4a1a1;}.cls-10{fill:#c9c7c7;}.cls-11{fill:#df9e49;}.cls-12{fill:#decbca;}.cls-13{fill:#c8a9a6;}.cls-14{fill:#a2786c;}.cls-15{fill:#95969d;}.cls-16{fill:#767277;}.cls-17{fill:#767575;}.cls-18{fill:#525050;}.cls-19{fill:#82888a;}.cls-20{fill:#3f4243;stroke:#3f4243;stroke-miterlimit:10;stroke-width:.66px;}</style></defs><path class="cls-8" d="M539.39,931.92c1.34,.01,2.67,.05,4.02,.05,104.09,0,197.69-44.93,262.46-116.44h-266.48v116.39Z"/><path class="cls-8" d="M539.39,931.92v-116.39H280.94c63.94,70.59,155.97,115.25,258.44,116.39Z"/><path class="cls-10" d="M540.42,818.19h264.66c35.85-39.58,62.86-87.31,77.95-140.07h-342.61v140.07Z"/><path class="cls-10" d="M280.16,818.19h260.26v-140.07H202.21c15.09,52.76,42.1,100.49,77.95,140.07Z"/><g><g><g><path class="cls-15" d="M152.7,508.55l-1.16-.02c.15-9.85-7.72-17.96-17.58-18.11-1.29-.02-2.55,.11-3.77,.35-2.62-8.38-10.37-14.52-19.62-14.66-10.27-.15-18.91,7.14-20.8,16.89-.71-.1-1.43-.18-2.16-.19-8.85-.13-16.14,6.81-16.51,15.6-10.3,2.69-18.5,10.78-21.29,21.08l127.13,1.96c-3.09-12.93-10.36-22.7-24.23-22.91Z"/><g><path class="cls-15" d="M110.95,475.88c-10.27-.22-18.96,7.01-20.92,16.75,7.45,1.16,13.19,7.33,13.74,14.9l26.7-16.86c-2.56-8.39-10.26-14.59-19.52-14.79Z"/><path class="cls-15" d="M71.25,507.91l18.78-15.28c-.71-.11-1.43-.19-2.16-.21-8.85-.19-16.19,6.7-16.62,15.49Z"/><path class="cls-15" d="M90.04,492.63l13.74,14.9c-.54-7.58-6.29-13.75-13.74-14.9Z"/><path class="cls-15" d="M134.25,490.35c-1.29-.03-2.56,.09-3.78,.32l-2.42,17.39,23.65,.52c.22-9.85-7.6-18.02-17.45-18.23Z"/><path class="cls-15" d="M152.86,508.6l-1.16-.03-80.48-.22c0-.15,.03-.3,.03-.46-10.32,2.62-18.58,10.65-21.44,20.93l128.19,2.87c-3-12.95-11.28-22.8-25.15-23.11Z"/><path class="cls-15" d="M102.14,515.91c1.02-2.07,1.63-4.38,1.68-6.83,.01-.52,0-1.03-.04-1.54l-1.64,8.38Z"/><path class="cls-15" d="M102.14,515.91c1.02-2.07,1.63-4.38,1.68-6.83,.01-.52,0-1.03-.04-1.54l-1.64,8.38Z"/></g></g><path class="cls-15" d="M90.04,493.22s11.12,3.61,10.56,13.98c-.61,11.44-10.56,13.98-10.56,13.98,7.72,0,13.98-6.26,13.98-13.98s-6.26-13.98-13.98-13.98Z"/></g><path class="cls-15" d="M156.69,509.59c-11.39-.17-20.77,8.93-20.94,20.32,0,0,5.53-17.34,20.82-16.29,16.87,1.16,20.44,16.91,20.44,16.91,.17-11.39-8.93-20.77-20.32-20.94Z"/></g><g><path class="cls-15" d="M423.08,377.87c-.47-11.08-9.67-19.84-20.83-19.68-.93,.01-1.83,.11-2.73,.24-2.39-12.29-13.28-21.5-26.24-21.31-11.67,.17-21.44,7.92-24.75,18.49-1.54-.31-3.13-.47-4.76-.44-12.43,.19-22.36,10.41-22.17,22.84l-1.46,.02c-17.49,.26-26.66,12.59-30.56,28.9l160.35-2.47c-3.52-12.99-13.87-23.2-26.86-26.59Z"/><path class="cls-15" d="M399.2,358.69c-9.74,0-17.63,7.89-17.63,17.63s7.89,17.63,17.63,17.63c0,0-12.55-3.2-13.32-17.63-.7-13.08,13.32-17.63,13.32-17.63Z"/><path class="cls-15" d="M315.12,379.34c-14.37,.21-25.85,12.04-25.63,26.41,0,0,4.5-19.86,25.78-21.32,19.29-1.33,26.26,20.55,26.26,20.55-.21-14.37-12.04-25.85-26.41-25.63Z"/></g><g><path class="cls-20" d="M524.56,743.47l-.11-.12-.11,.12c-3.11,3.48-9.57,9.33-17.83,9.37h-.08c-6.49,0-13.17-3.53-17.9-9.45l-.11-.14-.12,.14c-3.13,3.57-9.61,9.53-17.91,9.53h-.08c-6.45-.03-13.08-3.59-17.74-9.53l-.11-.14-.12,.14c-4.52,5.15-9.42,8.25-14.56,9.22l.06,.3c5.16-.97,10.08-4.06,14.61-9.18,4.71,5.92,11.38,9.47,17.87,9.5h.08c8.31,0,14.81-5.88,18.02-9.5,4.78,5.91,11.5,9.42,18.02,9.42h.08c6.17-.03,12.53-3.35,17.94-9.35,4.84,5.19,9.92,8.25,15.1,9.11l.05-.3c-5.16-.85-10.22-3.92-15.05-9.14Z"/><path class="cls-20" d="M524.56,748.26l-.11-.12-.11,.12c-3.11,3.48-9.57,9.33-17.83,9.37h-.08c-6.49,0-13.17-3.53-17.9-9.45l-.11-.14-.12,.14c-3.13,3.57-9.61,9.53-17.91,9.53h-.08c-6.45-.03-13.08-3.59-17.74-9.53l-.11-.14-.12,.14c-4.52,5.15-9.42,8.25-14.56,9.22l.06,.3c5.16-.97,10.08-4.06,14.61-9.18,4.71,5.92,11.38,9.47,17.87,9.5h.08c8.31,0,14.81-5.88,18.02-9.5,4.78,5.91,11.5,9.42,18.02,9.42h.08c6.17-.03,12.53-3.35,17.94-9.35,4.84,5.19,9.92,8.25,15.1,9.11l.05-.3c-5.16-.85-10.22-3.92-15.05-9.14Z"/><path class="cls-20" d="M524.56,753.06l-.11-.12-.11,.12c-3.11,3.48-9.57,9.33-17.83,9.37h-.08c-6.49,0-13.17-3.53-17.9-9.45l-.11-.14-.12,.14c-3.13,3.57-9.61,9.53-17.91,9.53h-.08c-6.45-.03-13.08-3.59-17.74-9.53l-.11-.14-.12,.14c-4.52,5.15-9.42,8.25-14.56,9.22l.06,.3c5.16-.97,10.08-4.06,14.61-9.18,4.71,5.92,11.38,9.47,17.87,9.5h.08c8.31,0,14.81-5.88,18.02-9.5,4.78,5.91,11.5,9.42,18.02,9.42h.08c6.17-.03,12.53-3.35,17.94-9.35,5.1,5.46,10.46,8.57,15.93,9.22l.04-.3c-5.44-.65-10.78-3.76-15.86-9.25Z"/></g><g><path class="cls-20" d="M627.21,743.47l-.11-.12-.11,.12c-3.11,3.48-9.57,9.33-17.83,9.37h-.08c-6.49,0-13.17-3.53-17.9-9.45l-.11-.14-.12,.14c-3.13,3.57-9.61,9.53-17.91,9.53h-.08c-6.45-.03-13.08-3.59-17.74-9.53l-.11-.14-.12,.14c-4.52,5.15-9.42,8.25-14.56,9.22l.06,.3c5.16-.97,10.08-4.06,14.61-9.18,4.72,5.92,11.38,9.47,17.87,9.5h.08c8.31,0,14.81-5.88,18.02-9.5,4.78,5.91,11.5,9.42,18.02,9.42h.08c6.17-.03,12.53-3.35,17.94-9.35,4.84,5.19,9.92,8.25,15.1,9.11l.05-.3c-5.16-.85-10.22-3.92-15.05-9.14Z"/><path class="cls-20" d="M627.21,748.26l-.11-.12-.11,.12c-3.11,3.48-9.57,9.33-17.83,9.37h-.08c-6.49,0-13.17-3.53-17.9-9.45l-.11-.14-.12,.14c-3.13,3.57-9.61,9.53-17.91,9.53h-.08c-6.45-.03-13.08-3.59-17.74-9.53l-.11-.14-.12,.14c-4.52,5.15-9.42,8.25-14.56,9.22l.06,.3c5.16-.97,10.08-4.06,14.61-9.18,4.72,5.92,11.38,9.47,17.87,9.5h.08c8.31,0,14.81-5.88,18.02-9.5,4.78,5.91,11.5,9.42,18.02,9.42h.08c6.17-.03,12.53-3.35,17.94-9.35,4.84,5.19,9.92,8.25,15.1,9.11l.05-.3c-5.16-.85-10.22-3.92-15.05-9.14Z"/><path class="cls-20" d="M627.21,753.06l-.11-.12-.11,.12c-3.11,3.48-9.57,9.33-17.83,9.37h-.08c-6.49,0-13.17-3.53-17.9-9.45l-.11-.14-.12,.14c-3.13,3.57-9.61,9.53-17.91,9.53h-.08c-6.45-.03-13.08-3.59-17.74-9.53l-.11-.14-.12,.14c-4.52,5.15-9.42,8.25-14.56,9.22l.06,.3c5.16-.97,10.08-4.06,14.61-9.18,4.72,5.92,11.38,9.47,17.87,9.5h.08c8.31,0,14.81-5.88,18.02-9.5,4.78,5.91,11.5,9.42,18.02,9.42h.08c6.17-.03,12.53-3.35,17.94-9.35,5.1,5.46,10.46,8.57,15.93,9.22l.04-.3c-5.44-.65-10.78-3.76-15.86-9.25Z"/></g><g><path class="cls-20" d="M794.03,795.2h-.07c-5.54,0-11.26-3.02-15.3-8.08l-.1-.12-.1,.12c-2.68,3.05-8.22,8.15-15.31,8.15h-.07c-5.51-.03-11.18-3.07-15.17-8.14l-.1-.12-.1,.12c-3.86,4.4-8.05,7.05-12.45,7.88l.05,.25c4.41-.83,8.61-3.47,12.49-7.85,4.03,5.06,9.73,8.1,15.27,8.12h.07c7.11,0,12.66-5.03,15.4-8.12,4.08,5.05,9.83,8.05,15.41,8.05h.07c.57,0,1.15-.05,1.73-.12-.02-.08-.03-.17-.05-.25-.55,.07-1.11,.12-1.68,.12Z"/><path class="cls-20" d="M794.03,799.29h-.07c-5.54,0-11.26-3.02-15.3-8.08l-.1-.12-.1,.12c-2.68,3.05-8.22,8.15-15.31,8.15h-.07c-5.51-.03-11.18-3.07-15.17-8.14l-.1-.12-.1,.12c-3.86,4.4-8.05,7.05-12.45,7.88l.05,.25c4.41-.83,8.61-3.47,12.49-7.85,4.03,5.06,9.73,8.1,15.27,8.12h.07c7.11,0,12.66-5.03,15.4-8.12,4.08,5.05,9.83,8.05,15.41,8.05h.07c.61,0,1.23-.05,1.84-.13,0-.09,0-.17,0-.26-.6,.08-1.22,.13-1.84,.14Z"/><path class="cls-20" d="M793.96,803.39c-5.54,0-11.26-3.02-15.3-8.08l-.1-.12-.1,.12c-2.68,3.05-8.22,8.15-15.31,8.15h-.07c-5.51-.03-11.18-3.07-15.17-8.14l-.1-.12-.1,.12c-3.86,4.4-8.05,7.05-12.45,7.88l.05,.25c4.41-.83,8.61-3.47,12.49-7.85,4.03,5.06,9.73,8.1,15.27,8.12h.07c7.11,0,12.66-5.03,15.4-8.12,4.08,5.05,9.83,8.05,15.41,8.05h.07c.61,0,1.22-.06,1.83-.14,0-.09,0-.17,0-.26-.6,.08-1.21,.13-1.83,.14h-.07Z"/></g><g><path class="cls-10" d="M342.67,272.87c-2.54,0-4.9,.74-6.9,1.99-1.3-8.31-8.47-14.68-17.14-14.68-2.98,0-5.78,.75-8.23,2.07-5.75-12.23-18.18-20.7-32.59-20.7s-27.92,9.23-33.31,22.33c-.88-.11-1.78-.18-2.69-.18-12.25,0-22.19,9.93-22.19,22.19,0,1.73,.22,3.41,.59,5.02h109.46c.25-.21,.51-.41,.75-.64,.08,.22,.17,.43,.26,.64h24c.65-1.55,1.01-3.24,1.01-5.02,0-7.19-5.83-13.02-13.02-13.02Z"/><g><path class="cls-10" d="M277.81,241.51c-15.04,0-27.92,9.23-33.31,22.33,10.98,1.33,19.49,10.67,19.49,22.01l46.4-23.64c-5.75-12.23-18.18-20.7-32.59-20.7Z"/><path class="cls-10" d="M219.62,285.85l24.88-22.01c-.88-.11-1.78-.18-2.69-.18-12.25,0-22.19,9.93-22.19,22.19Z"/><path class="cls-10" d="M244.5,263.84l19.49,22.01c0-11.34-8.51-20.68-19.49-22.01Z"/><path class="cls-10" d="M318.62,260.14c-2.98,0-5.78,.75-8.23,2.07l25.37,12.61c-1.3-8.31-8.47-14.68-17.14-14.68Z"/></g></g><g><path class="cls-10" d="M444.81,161.95c-.51,0-1,.04-1.49,.1-2.99-7.27-10.13-12.39-18.47-12.39s-14.89,4.7-18.08,11.48c-1.36-.73-2.91-1.15-4.56-1.15-4.81,0-8.79,3.53-9.51,8.14-1.11-.7-2.42-1.11-3.83-1.11-3.99,0-7.22,3.23-7.22,7.22,0,.99,.2,1.93,.56,2.79h13.31c.05-.12,.1-.23,.14-.35,.13,.12,.28,.24,.42,.35h60.72c.21-.9,.33-1.83,.33-2.79,0-6.8-5.51-12.31-12.31-12.31Z"/><g><path class="cls-10" d="M424.84,149.64c-7.99,0-14.89,4.7-18.08,11.48l25.74,13.11c0-6.29,4.72-11.47,10.81-12.21-2.99-7.27-10.13-12.39-18.47-12.39Z"/><path class="cls-10" d="M444.81,161.93c-.51,0-1,.04-1.49,.1l13.8,12.21c0-6.8-5.51-12.31-12.31-12.31Z"/><path class="cls-10" d="M432.5,174.24l10.81-12.21c-6.09,.74-10.81,5.92-10.81,12.21Z"/><path class="cls-10" d="M392.69,168.12l14.07-7c-1.36-.73-2.91-1.15-4.56-1.15-4.81,0-8.79,3.53-9.51,8.14Z"/></g></g><path class="cls-10" d="M180.95,367.37c-1.84,0-3.59,.33-5.23,.91-.83-16.26-14.28-29.19-30.74-29.19s-29.66,12.69-30.71,28.74c-5.57,1.2-9.74,6.14-9.74,12.07,0,1.51,.29,2.96,.78,4.3h91.33c.02-.36,.05-.71,.05-1.07,0-8.7-7.05-15.75-15.75-15.75Z"/><path class="cls-15" d="M258.52,268.42c-1.43-21.72-19.48-38.9-41.57-38.9s-40.49,17.5-41.61,39.51c-2.22-.78-4.59-1.23-7.08-1.23-11.77,0-21.32,9.54-21.32,21.32,0,.49,.04,.97,.07,1.45h123.63c.67-1.81,1.06-3.77,1.06-5.81,0-8.02-5.65-14.71-13.18-16.33Z"/><path class="cls-15" d="M498.31,245.53c-1.04-.13-2.09-.21-3.16-.21-14.37,0-26.01,11.65-26.01,26.01h0s0,.03,0,.04c0,2.03,.26,3.99,.69,5.89h71.7v-57.68c-1.38-.14-2.77-.23-4.18-.23-17.63,0-32.74,10.82-39.05,26.18Z"/><path class="cls-15" d="M613.21,256.07c-3.01,0-5.8,.87-8.17,2.36,0-.02,0-.03,0-.05h0c-1.53-9.84-10.03-17.39-20.3-17.39-3.52,0-6.84,.89-9.74,2.45-6.24-13.27-19.13-22.78-34.37-24.28v58.26h57.2c.3-.25,.6-.49,.89-.75,.09,.26,.2,.5,.3,.75h28.42c.77-1.83,1.19-3.84,1.19-5.95,0-8.52-6.9-15.42-15.42-15.42Z"/><g><g><path class="cls-15" d="M927.07,338.93l-1.12,.02c-.18-9.54-8.06-17.12-17.6-16.94-1.25,.02-2.47,.19-3.64,.46-2.81-8.02-10.51-13.7-19.46-13.53-9.95,.19-18.06,7.53-19.57,17.03-.69-.08-1.39-.13-2.1-.11-8.56,.16-15.39,7.12-15.46,15.64-9.87,2.94-17.55,11.04-19.9,21.1l123.05-2.29c-3.41-12.41-10.77-21.62-24.19-21.36Z"/><path class="cls-15" d="M927.22,338.97h-1.12c-.12-9.53-7.94-17.16-17.48-17.05-1.25,.02-2.47,.17-3.64,.44-2.75-8.04-10.41-13.78-19.37-13.67-9.95,.12-18.11,7.41-19.68,16.89-.69-.08-1.38-.14-2.1-.13-8.57,.1-15.44,7.02-15.57,15.53-9.89,2.87-17.62,10.92-20.05,20.96l124.1-1.44c-3.33-12.43-11.67-21.69-25.09-21.53Z"/></g><path class="cls-9" d="M863.95,325.36s10.77,3.5,10.23,13.53c-.59,11.07-10.23,13.53-10.23,13.53,7.47,0,13.53-6.06,13.53-13.53s-6.06-13.53-13.53-13.53Z"/><path class="cls-9" d="M930.8,338.88c-11.03-.16-20.11,8.64-20.27,19.67,0,0,5.36-16.79,20.16-15.77,16.33,1.12,19.79,16.37,19.79,16.37,.16-11.03-8.64-20.1-19.67-20.27Z"/></g><path class="cls-8" d="M705.86,288.12h-27.48c-8.36,0-15.2,6.84-15.2,15.2s6.84,15.2,15.2,15.2h27.48c8.36,0,15.2-6.84,15.2-15.2s-6.84-15.2-15.2-15.2Z"/><path class="cls-10" d="M686.32,147.41c-10.99,0-16.49,0-27.48,0-8.36,0-15.2,6.84-15.2,15.2,0,8.36,6.84,15.2,15.2,15.2h27.48c8.36,0,15.2-6.84,15.2-15.2s-6.84-15.2-15.2-15.2Z"/><path class="cls-10" d="M776.41,236.7h-43.97c-13.38,0-24.32,10.95-24.32,24.32s10.95,24.32,24.32,24.32h43.97c13.38,0,24.32-10.95,24.32-24.32s-10.95-24.32-24.32-24.32Z"/><path class="cls-10" d="M839.66,268.69h-77.85c-8.52,0-15.5,6.97-15.5,15.5,0,8.52,6.97,15.5,15.5,15.5h77.85c8.52,0,15.5-6.97,15.5-15.5s-6.97-15.5-15.5-15.5Z"/><path class="cls-8" d="M425.63,791.62h-38.03c-4.16,0-7.57,3.41-7.57,7.57,0,4.16,3.41,7.57,7.57,7.57h38.03c4.16,0,7.57-3.41,7.57-7.57s-3.41-7.57-7.57-7.57Z"/><path class="cls-8" d="M397.44,748.24h-117.46c-12.86,0-18.73,5-18.73,11.12,0,6.12,5.87,11.12,18.73,11.12h117.46c12.86,0,18.73-5,18.73-11.12s-5.87-11.12-18.73-11.12Z"/><path class="cls-8" d="M781.31,721.91h-45.16c-4.95,0-8.99,4.05-8.99,8.99s4.05,8.99,8.99,8.99h45.16c4.94,0,8.99-4.05,8.99-8.99s-4.05-8.99-8.99-8.99Z"/><path class="cls-8" d="M753.3,733.25h-73.72c-8.07,0-14.68,6.6-14.68,14.68,0,8.07,6.6,14.68,14.68,14.68,24.58,0,49.15,0,73.72,0,8.07,0,14.68-6.61,14.68-14.68s-6.61-14.68-14.68-14.68Z"/><g><path class="cls-20" d="M341.81,721.41c-.59,.07-1.09,.11-1.56,.11-5.22,0-10.55-2.82-14.32-7.54l-.34-.43-.36,.42c-2.5,2.84-7.67,7.61-14.27,7.61-5.19-.02-10.47-2.87-14.2-7.6l-.34-.43-.36,.41c-3.62,4.12-7.52,6.6-11.62,7.37l-.32,.06,.17,.89,.32-.06c4.16-.79,8.12-3.23,11.77-7.26,3.87,4.7,9.26,7.5,14.5,7.53h.07c6.68,0,11.92-4.59,14.6-7.53,3.92,4.68,9.36,7.46,14.63,7.46,.57,0,1.12-.04,1.75-.12l.35-.04-.17-.89-.3,.04Z"/><path class="cls-20" d="M341.96,725.28c-.65,.08-1.19,.12-1.71,.13-5.22,0-10.55-2.82-14.32-7.54l-.34-.43-.36,.42c-2.5,2.84-7.67,7.61-14.27,7.61-5.19-.02-10.47-2.87-14.2-7.6l-.34-.43-.36,.41c-3.62,4.12-7.52,6.6-11.62,7.37l-.32,.06,.17,.89,.32-.06c4.16-.79,8.12-3.23,11.77-7.26,3.87,4.7,9.26,7.5,14.5,7.53h.07c6.68,0,11.92-4.59,14.6-7.53,3.92,4.68,9.36,7.46,14.63,7.46,.61,0,1.19-.04,1.86-.13l.3-.04v-.91s-.38,.05-.38,.05Z"/><path class="cls-20" d="M340.25,729.3c-5.22,0-10.55-2.82-14.32-7.54l-.34-.43-.36,.42c-2.5,2.84-7.67,7.61-14.27,7.61-5.19-.02-10.47-2.87-14.2-7.6l-.34-.43-.36,.41c-3.62,4.12-7.52,6.6-11.62,7.37l-.32,.06,.17,.89,.32-.06c4.16-.79,8.12-3.23,11.77-7.26,3.87,4.7,9.26,7.5,14.5,7.53h.07c6.68,0,11.92-4.59,14.6-7.53,3.92,4.68,9.36,7.46,14.63,7.46,.6,0,1.16-.04,1.84-.13l.28-.04v-.91s-.36,.05-.36,.05c-.64,.08-1.18,.12-1.7,.13Z"/></g><path class="cls-10" d="M899.46,443.75c-1.33,0-2.6,.24-3.78,.66-.6-11.76-10.33-21.12-22.24-21.12s-21.46,9.18-22.22,20.79c-4.03,.87-7.05,4.44-7.05,8.73,0,1.09,.21,2.14,.57,3.11h66.08c.02-.26,.04-.51,.04-.78,0-6.29-5.1-11.39-11.39-11.39Z"/><g><rect class="cls-2" x="591.58" y="469.06" width="124.77" height="151.28"/><rect class="cls-12" x="591.58" y="523.47" width="124.77" height="7.68"/><rect class="cls-12" x="591.58" y="551.81" width="124.77" height="26.32"/><g><path class="cls-2" d="M681.02,578.87h15.38v-28.13h-15.38v28.13Zm1.48-26.66h12.42v25.19h-12.42v-25.19Z"/><path class="cls-2" d="M653.23,578.87h15.37v-28.13h-15.37v28.13Zm1.48-26.66h12.42v25.19h-12.42v-25.19Z"/><path class="cls-2" d="M708.81,578.87h8.28v-28.13h-8.28v28.13Zm1.48-26.66h5.32v25.19h-5.32v-25.19Z"/><path class="cls-2" d="M694.92,578.87h15.37v-28.13h-15.37v28.13Zm1.48-26.66h12.42v25.19h-12.42v-25.19Z"/><path class="cls-2" d="M667.12,578.87h15.37v-28.13h-15.37v28.13Zm1.48-26.66h12.42v25.19h-12.42v-25.19Z"/><path class="cls-2" d="M590.84,578.87h8.28v-28.13h-8.28v28.13Zm1.48-26.66h5.32v25.19h-5.32v-25.19Z"/><path class="cls-2" d="M597.65,578.87h15.37v-28.13h-15.37v28.13Zm1.48-26.66h12.42v25.19h-12.42v-25.19Z"/><path class="cls-2" d="M611.54,578.87h15.37v-28.13h-15.37v28.13Zm1.48-26.66h12.42v25.19h-12.42v-25.19Z"/><path class="cls-2" d="M639.33,578.87h15.38v-28.13h-15.38v28.13Zm1.48-26.66h12.42v25.19h-12.42v-25.19Z"/><path class="cls-2" d="M625.44,578.87h15.37v-28.13h-15.37v28.13Zm1.48-26.66h12.42v25.19h-12.42v-25.19Z"/></g></g><g><polygon class="cls-9" points="638.93 383.66 628.33 619.87 667.57 620.34 662.56 383.94 638.93 383.66"/><polygon class="cls-17" points="628.33 620.11 647.95 620.34 650.75 384.03 638.93 383.89 628.33 620.11"/><g><polygon class="cls-1" points="650.07 440.81 636.53 440.65 635.91 454.36 649.91 454.53 663.91 454.69 663.62 440.97 650.07 440.81"/><polygon class="cls-1" points="649.69 472.88 635.06 472.71 634.16 492.76 649.46 492.94 664.76 493.12 664.33 473.06 649.69 472.88"/></g></g><g><g><rect class="cls-16" x="811.68" y="489.35" width="140.88" height="130.7"/><rect class="cls-9" x="917.63" y="489.64" width="35.03" height="130.7"/></g><path class="cls-18" d="M955.45,486.56h-146.87c-1.54,0-2.78,1.25-2.78,2.78s1.25,2.78,2.78,2.78h146.87c1.54,0,2.78-1.25,2.78-2.78s-1.25-2.78-2.78-2.78Z"/><g><g><rect class="cls-1" x="934.12" y="514.65" width="8.81" height="13.09"/><rect class="cls-1" x="918.03" y="514.65" width="8.81" height="13.09"/><rect class="cls-1" x="901.94" y="514.65" width="8.81" height="13.09"/><rect class="cls-1" x="885.85" y="514.65" width="8.81" height="13.09"/><rect class="cls-1" x="869.76" y="514.65" width="8.81" height="13.09"/><rect class="cls-1" x="853.68" y="514.65" width="8.81" height="13.09"/><rect class="cls-1" x="837.59" y="514.65" width="8.81" height="13.09"/><rect class="cls-1" x="821.5" y="514.65" width="8.81" height="13.09"/></g><g><rect class="cls-1" x="934.12" y="539.8" width="8.81" height="13.09"/><rect class="cls-1" x="918.03" y="539.8" width="8.81" height="13.09"/><rect class="cls-1" x="901.94" y="539.8" width="8.81" height="13.09"/><rect class="cls-1" x="885.85" y="539.8" width="8.81" height="13.09"/><rect class="cls-1" x="869.76" y="539.8" width="8.81" height="13.09"/><rect class="cls-1" x="853.68" y="539.8" width="8.81" height="13.09"/><rect class="cls-1" x="837.59" y="539.8" width="8.81" height="13.09"/><rect class="cls-1" x="821.5" y="539.8" width="8.81" height="13.09"/></g><g><rect class="cls-1" x="934.12" y="564.96" width="8.81" height="13.09"/><rect class="cls-1" x="918.03" y="564.96" width="8.81" height="13.09"/><rect class="cls-1" x="901.94" y="564.96" width="8.81" height="13.09"/><rect class="cls-1" x="885.85" y="564.96" width="8.81" height="13.09"/><rect class="cls-1" x="869.76" y="564.96" width="8.81" height="13.09"/><rect class="cls-1" x="853.68" y="564.96" width="8.81" height="13.09"/><rect class="cls-1" x="837.59" y="564.96" width="8.81" height="13.09"/><rect class="cls-1" x="821.5" y="564.96" width="8.81" height="13.09"/></g></g><rect class="cls-18" x="811.52" y="610.49" width="140.97" height="8.45"/></g><g><path class="cls-5" d="M738.35,449.15s-7.31,152.13-23.25,171.18h116.93s-23.92-51.82-27.9-171.18h-65.78Z"/><path class="cls-14" d="M773.56,449.15v171.18h58.47s-23.92-51.82-27.9-171.18h-30.56Z"/><polygon class="cls-3" points="735.31 496.5 734.66 505.14 807.75 505.14 806.95 496.5 735.31 496.5"/><polygon class="cls-3" points="732.43 530.38 731.56 539.06 811.95 539.06 810.71 530.38 732.43 530.38"/><polygon class="cls-3" points="739.07 449.15 738.56 458.74 804.5 458.87 804.12 449.15 739.07 449.15"/></g><path class="cls-8" d="M754.42,358.91c-7.25,0-13.13,5.88-13.13,13.13s5.88,13.13,13.13,13.13,13.13-5.88,13.13-13.13-5.88-13.13-13.13-13.13Z"/><path class="cls-8" d="M642.29,357.63c-4.61,0-8.35,3.74-8.35,8.35s3.74,8.35,8.35,8.35,8.35-3.74,8.35-8.35-3.74-8.35-8.35-8.35Z"/><path class="cls-10" d="M661.52,326.1c-8.91,0-16.14,7.23-16.14,16.14s7.23,16.14,16.14,16.14,16.14-7.23,16.14-16.14-7.23-16.14-16.14-16.14Z"/><path class="cls-8" d="M734.61,386.71c-3.05,.03-5.5,2.52-5.47,5.57,.03,3.05,2.52,5.5,5.57,5.47,3.05-.03,5.5-2.52,5.47-5.57-.03-3.05-2.52-5.5-5.57-5.47Z"/><g><polygon class="cls-9" points="707.91 412.98 698.62 619.93 733.01 620.34 728.62 413.22 707.91 412.98"/><polygon class="cls-17" points="698.62 619.93 715.81 620.13 718.26 413.1 707.91 412.98 698.62 619.93"/><g><polygon class="cls-1" points="717.67 463.05 705.8 462.91 705.26 474.92 717.53 475.07 729.8 475.21 729.54 463.19 717.67 463.05"/><polygon class="cls-1" points="717.34 491.15 704.52 491 703.73 508.57 717.13 508.73 730.54 508.88 730.16 491.3 717.34 491.15"/></g></g><path class="cls-10" d="M180.87,443.75c1.33,0,2.6,.24,3.78,.66,.6-11.76,10.33-21.12,22.24-21.12s21.46,9.18,22.22,20.79c4.03,.87,7.05,4.44,7.05,8.73,0,1.09-.21,2.14-.57,3.11h-66.08c-.02-.26-.04-.51-.04-.78,0-6.29,5.1-11.39,11.39-11.39Z"/><g><rect class="cls-2" x="363.98" y="469.06" width="124.77" height="151.28"/><rect class="cls-12" x="363.98" y="523.47" width="124.77" height="7.68"/><rect class="cls-12" x="363.98" y="551.81" width="124.77" height="26.32"/><g><path class="cls-2" d="M399.32,550.74h-15.38s0,28.13,0,28.13h15.38s0-28.13,0-28.13Zm-1.48,26.66h-12.42v-25.19h12.42v25.19Z"/><path class="cls-2" d="M427.11,550.74h-15.37s0,28.13,0,28.13h15.37s0-28.13,0-28.13Zm-1.48,26.66h-12.42v-25.19h12.42v25.19Z"/><path class="cls-2" d="M371.53,550.74h-8.28s0,28.13,0,28.13h8.28s0-28.13,0-28.13Zm-1.48,26.66h-5.32v-25.19h5.32v25.19Z"/><path class="cls-2" d="M385.42,550.74h-15.37s0,28.13,0,28.13h15.37s0-28.13,0-28.13Zm-1.48,26.66h-12.42v-25.19h12.42v25.19Z"/><path class="cls-2" d="M413.21,550.74h-15.37s0,28.13,0,28.13h15.37s0-28.13,0-28.13Zm-1.48,26.66h-12.42v-25.19h12.42v25.19Z"/><path class="cls-2" d="M489.49,550.74h-8.28s0,28.13,0,28.13h8.28s0-28.13,0-28.13Zm-1.48,26.66h-5.32v-25.19h5.32v25.19Z"/><path class="cls-2" d="M482.69,550.74h-15.37s0,28.13,0,28.13h15.37s0-28.13,0-28.13Zm-1.48,26.66h-12.42v-25.19h12.42v25.19Z"/><path class="cls-2" d="M468.79,550.74h-15.37s0,28.13,0,28.13h15.37s0-28.13,0-28.13Zm-1.48,26.66h-12.42v-25.19h12.42v25.19Z"/><path class="cls-2" d="M441,550.74h-15.38s0,28.13,0,28.13h15.38s0-28.13,0-28.13Zm-1.48,26.66h-12.42v-25.19h12.42v25.19Z"/><path class="cls-2" d="M454.9,550.74h-15.37s0,28.13,0,28.13h15.37s0-28.13,0-28.13Zm-1.48,26.66h-12.42v-25.19h12.42v25.19Z"/></g></g><g><polygon class="cls-9" points="441.4 383.66 452.01 619.87 412.76 620.34 417.77 383.94 441.4 383.66"/><polygon class="cls-17" points="452.01 620.11 432.39 620.34 429.59 384.03 441.4 383.89 452.01 620.11"/><g><polygon class="cls-1" points="430.26 440.81 443.81 440.65 444.43 454.36 430.43 454.53 416.42 454.69 416.71 440.97 430.26 440.81"/><polygon class="cls-1" points="430.64 472.88 445.28 472.71 446.18 492.76 430.88 492.94 415.58 493.12 416.01 473.06 430.64 472.88"/></g></g><g><g><rect class="cls-16" x="127.77" y="489.35" width="140.88" height="130.7"/><rect class="cls-9" x="127.68" y="489.64" width="35.03" height="130.7"/></g><path class="cls-18" d="M124.89,486.56h146.87c1.54,0,2.78,1.25,2.78,2.78,0,1.54-1.25,2.78-2.78,2.78H124.89c-1.54,0-2.78-1.25-2.78-2.78,0-1.54,1.25-2.78,2.78-2.78Z"/><g><g><rect class="cls-1" x="137.41" y="514.65" width="8.81" height="13.09"/><rect class="cls-1" x="153.49" y="514.65" width="8.81" height="13.09"/><rect class="cls-1" x="169.58" y="514.65" width="8.81" height="13.09"/><rect class="cls-1" x="185.67" y="514.65" width="8.81" height="13.09"/><rect class="cls-1" x="201.76" y="514.65" width="8.81" height="13.09"/><rect class="cls-1" x="217.85" y="514.65" width="8.81" height="13.09"/><rect class="cls-1" x="233.94" y="514.65" width="8.81" height="13.09"/><rect class="cls-1" x="250.03" y="514.65" width="8.81" height="13.09"/></g><g><rect class="cls-1" x="137.41" y="539.8" width="8.81" height="13.09"/><rect class="cls-1" x="153.49" y="539.8" width="8.81" height="13.09"/><rect class="cls-1" x="169.58" y="539.8" width="8.81" height="13.09"/><rect class="cls-1" x="185.67" y="539.8" width="8.81" height="13.09"/><rect class="cls-1" x="201.76" y="539.8" width="8.81" height="13.09"/><rect class="cls-1" x="217.85" y="539.8" width="8.81" height="13.09"/><rect class="cls-1" x="233.94" y="539.8" width="8.81" height="13.09"/><rect class="cls-1" x="250.03" y="539.8" width="8.81" height="13.09"/></g><g><rect class="cls-1" x="137.41" y="564.96" width="8.81" height="13.09"/><rect class="cls-1" x="153.49" y="564.96" width="8.81" height="13.09"/><rect class="cls-1" x="169.58" y="564.96" width="8.81" height="13.09"/><rect class="cls-1" x="185.67" y="564.96" width="8.81" height="13.09"/><rect class="cls-1" x="201.76" y="564.96" width="8.81" height="13.09"/><rect class="cls-1" x="217.85" y="564.96" width="8.81" height="13.09"/><rect class="cls-1" x="233.94" y="564.96" width="8.81" height="13.09"/><rect class="cls-1" x="250.03" y="564.96" width="8.81" height="13.09"/></g></g><rect class="cls-18" x="127.84" y="610.49" width="140.97" height="8.45"/></g><g><path class="cls-5" d="M341.99,449.15s7.31,152.13,23.25,171.18h-116.93s23.92-51.82,27.9-171.18h65.78Z"/><path class="cls-14" d="M306.78,449.15v171.18h-58.47s23.92-51.82,27.9-171.18h30.56Z"/><polygon class="cls-3" points="345.03 496.5 345.68 505.14 272.58 505.14 273.38 496.5 345.03 496.5"/><polygon class="cls-3" points="347.9 530.38 348.77 539.06 268.39 539.06 269.63 530.38 347.9 530.38"/><polygon class="cls-3" points="341.26 449.15 341.78 458.74 275.84 458.87 276.21 449.15 341.26 449.15"/></g><path class="cls-8" d="M325.91,358.91c7.25,0,13.13,5.88,13.13,13.13s-5.88,13.13-13.13,13.13-13.13-5.88-13.13-13.13,5.88-13.13,13.13-13.13Z"/><path class="cls-8" d="M438.05,357.63c4.61,0,8.35,3.74,8.35,8.35,0,4.61-3.74,8.35-8.35,8.35s-8.35-3.74-8.35-8.35c0-4.61,3.74-8.35,8.35-8.35Z"/><path class="cls-10" d="M418.82,326.1c8.91,0,16.14,7.23,16.14,16.14,0,8.91-7.23,16.14-16.14,16.14-8.91,0-16.14-7.23-16.14-16.14,0-8.91,7.23-16.14,16.14-16.14Z"/><path class="cls-8" d="M345.73,386.71c3.05,.03,5.5,2.52,5.47,5.57-.03,3.05-2.52,5.5-5.57,5.47-3.05-.03-5.5-2.52-5.47-5.57,.03-3.05,2.52-5.5,5.57-5.47Z"/><g><polygon class="cls-9" points="372.42 412.98 381.71 619.93 347.33 620.34 351.72 413.22 372.42 412.98"/><polygon class="cls-17" points="381.71 619.93 364.52 620.13 362.07 413.1 372.42 412.98 381.71 619.93"/><g><polygon class="cls-1" points="362.66 463.05 374.53 462.91 375.07 474.92 362.8 475.07 350.54 475.21 350.79 463.19 362.66 463.05"/><polygon class="cls-1" points="363 491.15 375.82 491 376.61 508.57 363.2 508.73 349.8 508.88 350.17 491.3 363 491.15"/></g></g><g><path class="cls-4" d="M569.98,389.36c-10.3-11.32-20.56-27.72-33.65-27.72-16.95,0-35.58,18.9-48.32,35.92-33.11,44.26-34.59,76.13-34.59,76.13v146.65s165.81,0,165.81,0v-146.65s-8.95-40.06-49.25-84.33Z"/><path class="cls-6" d="M589.56,413.68c-17.16-26.05-36.35-43.09-36.35-43.09l23.83,53.46c1.01,2.27,18.38,37.18,18.58,74.15l1.14,122.14h22.48s1.7-137.14,0-146.65c-1.7-9.51-15.3-38.19-29.68-60.01Z"/><rect class="cls-13" x="453.42" y="473.69" width="165.81" height="11.84"/><g><rect class="cls-13" x="453.42" y="507.25" width="165.82" height="2.84"/><rect class="cls-13" x="453.42" y="513.78" width="165.82" height="2.84"/><rect class="cls-13" x="453.42" y="520.31" width="165.82" height="2.84"/><rect class="cls-13" x="453.42" y="526.84" width="165.82" height="2.84"/><rect class="cls-13" x="453.42" y="533.37" width="165.82" height="2.84"/></g></g><g><g><path class="cls-11" d="M996.22,618.22H88.31c-30.29,0-27.74,29.8,0,29.8,302.64,0,605.28,0,907.91,0,25.19,0,22.63-29.8,0-29.8Z"/><path class="cls-19" d="M931.72,677.81c-.87-.14-1.77-.22-2.65-.22H158.4c-24.21,.25-25.91,25.15,0,25.15,257.33,0,514.67,0,772,0,14.27,0,13.84-22.97,1.32-24.93Z"/><path class="cls-7" d="M1041.6,648.31c-1.03-.16-2.09-.28-3.13-.28H48.72c-29.44,0-30.29,29.81,0,29.81,330.44,0,660.88,0,991.32,0,18.35,0,19.31-26.75,1.56-29.52Z"/></g><g><path class="cls-11" d="M996.22,618.22h-455.87v29.8c151.96,0,303.91,0,455.87,0,25.19,0,22.63-29.8,0-29.8Z"/><path class="cls-19" d="M931.85,677.83c-130.5,0-261,0-391.5,0v24.9c130.02,0,260.03,0,390.05,0,14.22,0,13.84-22.8,1.45-24.9Z"/><path class="cls-7" d="M1041.6,648.31c-1.03-.16-2.09-.28-3.13-.28h-42.25c-151.96,0-303.91,0-455.87,0v29.56h388.72c.88,0,1.78,.08,2.65,.22,.04,0,.08,.02,.13,.03h108.2c18.35,0,19.31-26.75,1.56-29.52Z"/><path class="cls-7" d="M929.07,677.59h-388.72v.25c130.5,0,261,0,391.5,0-.04,0-.08-.02-.13-.03-.87-.14-1.77-.22-2.65-.22Z"/></g></g></svg>