<?xml version="1.0" encoding="UTF-8"?><svg xmlns="http://www.w3.org/2000/svg" xmlns:xlink="http://www.w3.org/1999/xlink" viewBox="0 0 1080 1080"><defs><style>.cls-1{letter-spacing:.05em;}.cls-2,.cls-3{fill:#00465b;font-family:NunitoSans-Bold, 'Nunito Sans';font-size:12px;font-weight:700;}.cls-4{letter-spacing:.05em;}.cls-5{fill:url(#radial-gradient-6);}.cls-5,.cls-6,.cls-7,.cls-8,.cls-9,.cls-10,.cls-11,.cls-12,.cls-13,.cls-14,.cls-15,.cls-16{mix-blend-mode:multiply;}.cls-6{fill:url(#radial-gradient-3);}.cls-7{fill:url(#radial-gradient-9);}.cls-17{letter-spacing:.05em;}.cls-18{letter-spacing:.05em;}.cls-19{letter-spacing:.04em;}.cls-20,.cls-3{letter-spacing:.05em;}.cls-21{letter-spacing:0em;}.cls-22{fill:#fff;}.cls-23{fill:#0dbdff;}.cls-24{letter-spacing:.04em;}.cls-25{fill:url(#radial-gradient-8);}.cls-25,.cls-26,.cls-27,.cls-28,.cls-29,.cls-30,.cls-31,.cls-32,.cls-33,.cls-34,.cls-35{mix-blend-mode:color-burn;}.cls-26{fill:url(#radial-gradient-5);}.cls-27{fill:url(#radial-gradient-2);}.cls-36{letter-spacing:.04em;}.cls-37{letter-spacing:.04em;}.cls-38{letter-spacing:-.02em;}.cls-39{fill:url(#radial-gradient-31);}.cls-40{fill:url(#radial-gradient-22);}.cls-41{fill:url(#radial-gradient-28);}.cls-42{fill:url(#radial-gradient-25);}.cls-43{fill:url(#radial-gradient-10);}.cls-44{fill:url(#radial-gradient-19);}.cls-45{fill:url(#radial-gradient-16);}.cls-46{fill:url(#radial-gradient-13);}.cls-28{fill:url(#radial-gradient-32);}.cls-29{fill:url(#radial-gradient-20);}.cls-30{fill:url(#radial-gradient-23);}.cls-31{fill:url(#radial-gradient-29);}.cls-32{fill:url(#radial-gradient-26);}.cls-33{fill:url(#radial-gradient-14);}.cls-34{fill:url(#radial-gradient-17);}.cls-35{fill:url(#radial-gradient-11);}.cls-47{letter-spacing:-.04em;}.cls-48{letter-spacing:-.04em;}.cls-49{fill:url(#radial-gradient-4);}.cls-50{fill:url(#radial-gradient-7);}.cls-51{letter-spacing:.07em;}.cls-52{letter-spacing:0em;}.cls-53{letter-spacing:.03em;}.cls-54{letter-spacing:.03em;}.cls-55{letter-spacing:.03em;}.cls-56{letter-spacing:.05em;}.cls-9{fill:url(#radial-gradient-24);}.cls-10{fill:url(#radial-gradient-12);}.cls-11{fill:url(#radial-gradient-15);}.cls-12{fill:url(#radial-gradient-18);}.cls-13{fill:url(#radial-gradient-27);}.cls-14{fill:url(#radial-gradient-33);}.cls-15{fill:url(#radial-gradient-30);}.cls-16{fill:url(#radial-gradient-21);}.cls-57{fill:url(#radial-gradient);}.cls-58{isolation:isolate;}.cls-59{letter-spacing:.04em;}</style><radialGradient id="radial-gradient" cx="942.34" cy="314.82" fx="942.34" fy="314.82" r="119.61" gradientUnits="userSpaceOnUse"><stop offset=".51" stop-color="#a6b2bf"/><stop offset=".65" stop-color="#c9d0d8"/><stop offset=".79" stop-color="#e6eaed"/><stop offset=".91" stop-color="#f8f9fa"/><stop offset="1" stop-color="#fff"/></radialGradient><radialGradient id="radial-gradient-2" cx="947.35" cy="314.79" fx="947.35" fy="314.79" r="106.62" gradientUnits="userSpaceOnUse"><stop offset=".51" stop-color="#3b3b3b"/><stop offset=".6" stop-color="#6c6c6c"/><stop offset=".7" stop-color="#a0a0a0"/><stop offset=".79" stop-color="#c9c9c9"/><stop offset=".87" stop-color="#e6e6e6"/><stop offset=".95" stop-color="#f8f8f8"/><stop offset="1" stop-color="#fff"/></radialGradient><radialGradient id="radial-gradient-3" cx="953.46" cy="300.05" fx="953.46" fy="300.05" r="86.14" gradientTransform="translate(488.88 -591.03) rotate(45)" gradientUnits="userSpaceOnUse"><stop offset=".77" stop-color="#fff"/><stop offset=".81" stop-color="#fbfbfb"/><stop offset=".86" stop-color="#efefef"/><stop offset=".91" stop-color="#dbdbdb"/><stop offset=".95" stop-color="#bfbfbf"/><stop offset="1" stop-color="#9b9b9b"/><stop offset="1" stop-color="#999"/></radialGradient><radialGradient id="radial-gradient-4" cy="561.02" fy="561.02" xlink:href="#radial-gradient"/><radialGradient id="radial-gradient-5" cy="561" fy="561" r="106.62" xlink:href="#radial-gradient-2"/><radialGradient id="radial-gradient-6" cy="546.25" fy="546.25" r="86.14" gradientTransform="translate(662.97 -518.92) rotate(45)" xlink:href="#radial-gradient-3"/><radialGradient id="radial-gradient-7" cx="674.11" fx="674.11" r="119.61" xlink:href="#radial-gradient"/><radialGradient id="radial-gradient-8" cx="679.12" fx="679.12" r="106.62" xlink:href="#radial-gradient-2"/><radialGradient id="radial-gradient-9" cx="685.23" fx="685.23" r="86.14" gradientTransform="translate(410.31 -401.37) rotate(45)" xlink:href="#radial-gradient-3"/><radialGradient id="radial-gradient-10" cx="674.11" cy="561.02" fx="674.11" fy="561.02" r="119.61" xlink:href="#radial-gradient"/><radialGradient id="radial-gradient-11" cx="679.12" cy="561" fx="679.12" fy="561" r="106.62" xlink:href="#radial-gradient-2"/><radialGradient id="radial-gradient-12" cx="685.23" cy="546.25" fx="685.23" fy="546.25" r="86.14" gradientTransform="translate(584.41 -329.25) rotate(45)" xlink:href="#radial-gradient-3"/><radialGradient id="radial-gradient-13" cx="674.11" cy="807.23" fx="674.11" fy="807.23" r="119.61" xlink:href="#radial-gradient"/><radialGradient id="radial-gradient-14" cx="679.12" cy="807.21" fx="679.12" fy="807.21" r="106.62" xlink:href="#radial-gradient-2"/><radialGradient id="radial-gradient-15" cx="685.23" cy="792.46" fx="685.23" fy="792.46" r="86.14" gradientTransform="translate(758.5 -257.14) rotate(45)" xlink:href="#radial-gradient-3"/><radialGradient id="radial-gradient-16" cx="405.89" fx="405.89" r="119.61" xlink:href="#radial-gradient"/><radialGradient id="radial-gradient-17" cx="410.89" fx="410.89" r="106.62" xlink:href="#radial-gradient-2"/><radialGradient id="radial-gradient-18" cx="417" fx="417" r="86.14" gradientTransform="translate(331.75 -211.7) rotate(45)" xlink:href="#radial-gradient-3"/><radialGradient id="radial-gradient-19" cx="405.89" cy="561.02" fx="405.89" fy="561.02" r="119.61" xlink:href="#radial-gradient"/><radialGradient id="radial-gradient-20" cx="410.89" cy="561" fx="410.89" fy="561" r="106.62" xlink:href="#radial-gradient-2"/><radialGradient id="radial-gradient-21" cx="417" cy="546.25" fx="417" fy="546.25" r="86.14" gradientTransform="translate(505.85 -139.59) rotate(45)" xlink:href="#radial-gradient-3"/><radialGradient id="radial-gradient-22" cx="405.89" cy="807.23" fx="405.89" fy="807.23" r="119.61" xlink:href="#radial-gradient"/><radialGradient id="radial-gradient-23" cx="410.89" cy="807.21" fx="410.89" fy="807.21" r="106.62" xlink:href="#radial-gradient-2"/><radialGradient id="radial-gradient-24" cx="417" cy="792.46" fx="417" fy="792.46" r="86.14" gradientTransform="translate(679.94 -67.47) rotate(45)" xlink:href="#radial-gradient-3"/><radialGradient id="radial-gradient-25" cx="137.66" fx="137.66" r="119.61" xlink:href="#radial-gradient"/><radialGradient id="radial-gradient-26" cx="142.67" fx="142.67" r="106.62" xlink:href="#radial-gradient-2"/><radialGradient id="radial-gradient-27" cx="148.77" fx="148.77" r="86.14" gradientTransform="translate(253.19 -22.03) rotate(45)" xlink:href="#radial-gradient-3"/><radialGradient id="radial-gradient-28" cx="137.66" cy="561.02" fx="137.66" fy="561.02" r="119.61" xlink:href="#radial-gradient"/><radialGradient id="radial-gradient-29" cx="142.67" cy="561" fx="142.67" fy="561" r="106.62" xlink:href="#radial-gradient-2"/><radialGradient id="radial-gradient-30" cx="148.77" cy="546.25" fx="148.77" fy="546.25" r="86.14" gradientTransform="translate(427.28 50.08) rotate(45)" xlink:href="#radial-gradient-3"/><radialGradient id="radial-gradient-31" cx="137.66" cy="807.23" fx="137.66" fy="807.23" r="119.61" xlink:href="#radial-gradient"/><radialGradient id="radial-gradient-32" cx="142.67" cy="807.21" fx="142.67" fy="807.21" r="106.62" xlink:href="#radial-gradient-2"/><radialGradient id="radial-gradient-33" cx="148.77" cy="792.46" fx="148.77" fy="792.46" r="86.14" gradientTransform="translate(601.38 122.19) rotate(45)" xlink:href="#radial-gradient-3"/></defs><g class="cls-58"><g id="Layer_1"><g><g><g><g><g class="cls-8"><circle class="cls-57" cx="942.34" cy="314.82" r="119.61"/></g><circle class="cls-23" cx="957.4" cy="294.65" r="98.04" transform="translate(72.07 763.29) rotate(-45)"/></g><g><circle class="cls-27" cx="947.35" cy="314.79" r="106.62"/><circle class="cls-22" cx="957.88" cy="294.44" r="88.21"/></g></g><circle class="cls-6" cx="957.88" cy="294.61" r="78.83" transform="translate(72.24 763.61) rotate(-45)"/></g><g><g><g><g class="cls-8"><circle class="cls-49" cx="942.34" cy="561.02" r="119.61"/></g><circle class="cls-23" cx="957.4" cy="540.86" r="98.04" transform="translate(-102.03 835.4) rotate(-45)"/></g><g><circle class="cls-26" cx="947.35" cy="561" r="106.62"/><circle class="cls-22" cx="957.88" cy="540.64" r="88.21"/></g></g><circle class="cls-5" cx="957.88" cy="540.82" r="78.83" transform="translate(-101.86 835.72) rotate(-45)"/></g><g><g><g><g class="cls-8"><circle class="cls-50" cx="674.11" cy="314.82" r="119.61"/></g><circle class="cls-23" cx="689.18" cy="294.65" r="98.04" transform="translate(-6.5 573.62) rotate(-45)"/></g><g><circle class="cls-25" cx="679.12" cy="314.79" r="106.62"/><circle class="cls-22" cx="689.65" cy="294.44" r="88.21"/></g></g><circle class="cls-7" cx="689.65" cy="294.61" r="78.83" transform="translate(-6.33 573.94) rotate(-45)"/></g><g><g><g><g class="cls-8"><circle class="cls-43" cx="674.11" cy="561.02" r="119.61"/></g><circle class="cls-23" cx="689.18" cy="540.86" r="98.04" transform="translate(-180.59 645.74) rotate(-45)"/></g><g><circle class="cls-35" cx="679.12" cy="561" r="106.62"/><circle class="cls-22" cx="689.65" cy="540.64" r="88.21"/></g></g><circle class="cls-10" cx="689.65" cy="540.82" r="78.83" transform="translate(-180.42 646.06) rotate(-45)"/></g><g><g><g><g class="cls-8"><circle class="cls-46" cx="674.11" cy="807.23" r="119.61"/></g><circle class="cls-23" cx="689.18" cy="787.07" r="98.04" transform="translate(-354.69 717.85) rotate(-45)"/></g><g><circle class="cls-33" cx="679.12" cy="807.21" r="106.62"/><circle class="cls-22" cx="689.65" cy="786.85" r="88.21"/></g></g><circle class="cls-11" cx="689.65" cy="787.02" r="78.83" transform="translate(-354.52 718.17) rotate(-45)"/></g><g><g><g><g class="cls-8"><circle class="cls-45" cx="405.89" cy="314.82" r="119.61"/></g><circle class="cls-23" cx="420.95" cy="294.65" r="98.04" transform="translate(-85.06 383.96) rotate(-45)"/></g><g><circle class="cls-34" cx="410.89" cy="314.79" r="106.62"/><circle class="cls-22" cx="421.42" cy="294.44" r="88.21"/></g></g><circle class="cls-12" cx="421.42" cy="294.61" r="78.83" transform="translate(-84.89 384.28) rotate(-45)"/></g><g><g><g><g class="cls-8"><circle class="cls-44" cx="405.89" cy="561.02" r="119.61"/></g><circle class="cls-23" cx="420.95" cy="540.86" r="98.04" transform="translate(-259.15 456.07) rotate(-45)"/></g><g><circle class="cls-29" cx="410.89" cy="561" r="106.62"/><circle class="cls-22" cx="421.42" cy="540.64" r="88.21"/></g></g><circle class="cls-16" cx="421.42" cy="540.82" r="78.83" transform="translate(-258.98 456.39) rotate(-45)"/></g><g><g><g><g class="cls-8"><circle class="cls-40" cx="405.89" cy="807.23" r="119.61"/></g><circle class="cls-23" cx="420.95" cy="787.07" r="98.04" transform="translate(-433.25 528.18) rotate(-45)"/></g><g><circle class="cls-30" cx="410.89" cy="807.21" r="106.62"/><circle class="cls-22" cx="421.42" cy="786.85" r="88.21"/></g></g><circle class="cls-9" cx="421.42" cy="787.02" r="78.83" transform="translate(-433.08 528.5) rotate(-45)"/></g><g><g><g><g class="cls-8"><circle class="cls-42" cx="137.66" cy="314.82" r="119.61"/></g><circle class="cls-23" cx="152.72" cy="294.65" r="98.04" transform="translate(-163.62 194.29) rotate(-45)"/></g><g><circle class="cls-32" cx="142.67" cy="314.79" r="106.62"/><circle class="cls-22" cx="153.19" cy="294.44" r="88.21"/></g></g><circle class="cls-13" cx="153.19" cy="294.61" r="78.83" transform="translate(-163.45 194.61) rotate(-45)"/></g><g><g><g><g class="cls-8"><circle class="cls-41" cx="137.66" cy="561.02" r="119.61"/></g><circle class="cls-23" cx="152.72" cy="540.86" r="98.04" transform="translate(-337.72 266.4) rotate(-45)"/></g><g><circle class="cls-31" cx="142.67" cy="561" r="106.62"/><circle class="cls-22" cx="153.19" cy="540.64" r="88.21"/></g></g><circle class="cls-15" cx="153.19" cy="540.82" r="78.83" transform="translate(-337.55 266.72) rotate(-45)"/></g><g><g><g><g class="cls-8"><circle class="cls-39" cx="137.66" cy="807.23" r="119.61"/></g><circle class="cls-23" cx="152.72" cy="787.07" r="98.04" transform="translate(-511.81 338.52) rotate(-45)"/></g><g><circle class="cls-28" cx="142.67" cy="807.21" r="106.62"/><circle class="cls-22" cx="153.19" cy="786.85" r="88.21"/></g></g><circle class="cls-14" cx="153.19" cy="787.02" r="78.83" transform="translate(-511.64 338.84) rotate(-45)"/></g><text class="cls-2" transform="translate(121.46 329.11)"><tspan class="cls-20" x="0" y="0">T</tspan><tspan class="cls-1" x="7.96" y="0">E</tspan><tspan class="cls-47" x="15.64" y="0">T</tspan><tspan class="cls-18" x="22.55" y="0">ANUS </tspan><tspan class="cls-20" x="4.19" y="14">DIS</tspan><tspan class="cls-59" x="26.07" y="14">E</tspan><tspan class="cls-36" x="33.59" y="14">A</tspan><tspan class="cls-18" x="43" y="14">SE</tspan></text><text class="cls-2" transform="translate(395.12 329.11)"><tspan class="cls-54" x="0" y="0">W</tspan><tspan class="cls-18" x="13.7" y="0">OUND</tspan><tspan class="cls-18" x="-12.31" y="14">INF</tspan><tspan class="cls-4" x="8.62" y="14">E</tspan><tspan class="cls-24" x="16.26" y="14">C</tspan><tspan class="cls-20" x="24.88" y="14">TIONS</tspan></text><text class="cls-2" transform="translate(654.24 329.11)"><tspan class="cls-18" x="0" y="0">SKIN </tspan><tspan class="cls-37" x="34.16" y="0">RA</tspan><tspan class="cls-18" x="52.42" y="0">SH</tspan></text><text class="cls-2" transform="translate(891.73 329.11)"><tspan class="cls-18" x="0" y="0">G</tspan><tspan class="cls-36" x="9.4" y="0">A</tspan><tspan class="cls-55" x="18.8" y="0">S</tspan><tspan class="cls-20" x="26.88" y="0">T</tspan><tspan class="cls-17" x="34.84" y="0">R</tspan><tspan class="cls-18" x="43.72" y="0">OINT</tspan><tspan class="cls-24" x="75.16" y="0">E</tspan><tspan class="cls-55" x="82.7" y="0">S</tspan><tspan class="cls-18" x="90.78" y="0">TINAL </tspan><tspan class="cls-18" x="40.39" y="14">ILLN</tspan><tspan class="cls-24" x="68.44" y="14">E</tspan><tspan class="cls-18" x="75.99" y="14">SS</tspan></text><text class="cls-2" transform="translate(102.67 585.4)"><tspan class="cls-18" x="0" y="0">LE</tspan><tspan class="cls-53" x="14.93" y="0">P</tspan><tspan class="cls-21" x="23.24" y="0">T</tspan><tspan class="cls-20" x="30.7" y="0">OSPI</tspan><tspan class="cls-17" x="61.39" y="0">R</tspan><tspan class="cls-18" x="70.27" y="0">OSIS</tspan></text><text class="cls-2" transform="translate(369.86 585.4)"><tspan class="cls-51" x="0" y="0">T</tspan><tspan class="cls-20" x="8.14" y="0">YPHOID FEVER</tspan></text><text class="cls-2" transform="translate(658.6 585.4)"><tspan class="cls-20" x="0" y="0">CHOLE</tspan><tspan class="cls-36" x="43.4" y="0">R</tspan><tspan class="cls-18" x="52.25" y="0">A</tspan></text><text class="cls-2" transform="translate(918.67 585.4)"><tspan class="cls-18" x="0" y="0">HE</tspan><tspan class="cls-38" x="17.46" y="0">P</tspan><tspan class="cls-48" x="25.08" y="0">A</tspan><tspan class="cls-18" x="33.54" y="0">TITIS A</tspan></text><text class="cls-2" transform="translate(123.37 827.21)"><tspan class="cls-18" x="0" y="0">MA</tspan><tspan class="cls-19" x="20.2" y="0">L</tspan><tspan class="cls-18" x="27.38" y="0">ARIA</tspan></text><text class="cls-3" transform="translate(372.23 827.21)"><tspan x="0" y="0">DENGUE FEVER</tspan></text><text class="cls-2" transform="translate(642.32 827.21)"><tspan class="cls-18" x="0" y="0">HY</tspan><tspan class="cls-56" x="17.87" y="0">P</tspan><tspan class="cls-52" x="26.35" y="0">O</tspan><tspan class="cls-20" x="35.8" y="0">THERMIA</tspan></text><g><path class="cls-23" d="M685.09,805.86c1.21-.84,2.37-1.58,3.45-2.41,1.44-1.11,2.85-2.27,4.24-3.44,1.19-1.01,1.9-2.33,2.38-3.8,.1-.3,.27-.62,.51-.82,3.17-2.75,3.89-7.42-.34-10.66-2.3-1.77-4.92-2.87-7.51-4.06-1.12-.51-2.24-1.02-3.37-1.52-1.44-.63-2.97-.85-4.42-.21-3.2,1.4-6.37,2.88-9.5,4.44-1.01,.5-1.9,1.29-2.75,2.05-2.65,2.38-2.93,5.78-.77,8.68,2.1,2.81,5.63,3.56,8.59,1.74,2.29-1.41,4.51-2.93,6.76-4.4,.75-.49,1.49-1,2.25-1.48,2.16-1.36,4.9-.93,6.44,1.01,1.6,2.01,1.47,4.78-.47,6.54-1.44,1.32-3,2.52-4.6,3.66-2.14,1.53-4.27,3.13-6.58,4.37-9.1,4.9-20.14,.55-23.9-9.3-3.1-8.14,.06-17.23,7.63-21.52,2.47-1.4,5.16-2.44,7.76-3.59,.26-.12,.77,0,1.01,.2,6.05,5.1,13.93,5.09,20.07-.04,.19-.16,.57-.3,.78-.22,3.89,1.4,7.76,2.91,10.85,5.74,5.15,4.72,7.04,10.64,5.33,17.39-1.71,6.75-6.01,11.21-12.89,12.92-3.56,.89-7.81,.38-10.95-1.26Z"/><path class="cls-23" d="M681.8,771.77c-6.49-.08-11.71-5.36-11.64-11.79,.06-6.57,5.36-11.76,11.92-11.68,6.52,.08,11.68,5.39,11.6,11.91-.09,6.46-5.4,11.64-11.87,11.56Z"/><path class="cls-23" d="M708,762.09c0-1.23-.02-2.47,0-3.7,.01-.46-.11-.81-.59-.84-.31-.02-.72,.02-.92,.21-1.01,.93-1.96,1.92-2.94,2.89-.94,.93-1.9,1.02-2.64,.26-.72-.74-.62-1.68,.28-2.58,.93-.93,1.86-1.87,2.8-2.79,.31-.31,.54-.54,.31-1.07-.23-.52-.54-.6-1.03-.6-2.33,.02-4.66,.01-6.98,0-1.22,0-1.93-.58-1.96-1.6-.03-1.05,.7-1.7,1.94-1.71,2.33,0,4.66-.01,6.98,0,.47,0,.76-.09,.94-.6,.17-.46,.15-.74-.22-1.09-1-.95-1.96-1.92-2.92-2.91-.79-.81-.81-1.78-.12-2.46,.69-.67,1.69-.63,2.47,.14,.94,.92,1.87,1.86,2.8,2.8,.3,.3,.51,.59,1.06,.32,.51-.26,.76-.49,.74-1.1-.04-2.33-.01-4.66-.02-6.98,0-.7,.24-1.36,.91-1.56,.51-.15,1.17-.12,1.65,.09,.65,.27,.77,.97,.77,1.65,0,2.27,.03,4.54-.02,6.81-.01,.64,.28,.84,.76,1.09,.55,.29,.76-.07,1.05-.35,.92-.91,1.82-1.83,2.74-2.73,.84-.81,1.83-.86,2.53-.15,.69,.7,.61,1.69-.22,2.53-.94,.96-1.88,1.92-2.87,2.84-.38,.36-.34,.65-.18,1.09,.17,.46,.41,.57,.86,.56,2.36-.02,4.71,0,7.07,0,.72,0,1.34,.18,1.71,.85,.64,1.14-.14,2.44-1.51,2.46-2.38,.02-4.77,.01-7.15,0-.5,0-.87,.01-1.11,.6-.24,.58,.07,.82,.39,1.13,.95,.95,1.91,1.9,2.85,2.86,.78,.8,.83,1.77,.14,2.47-.68,.69-1.68,.66-2.46-.11-1.02-1-2.03-2.01-3.03-3.04-.3-.3-.54-.47-1.01-.26-.45,.2-.55,.45-.55,.89,.02,2.41,.02,4.82,0,7.24,0,1.13-.57,1.81-1.51,1.88-1.02,.08-1.77-.58-1.8-1.66-.03-1.26,0-2.52,0-3.79Zm-.89-9.96c.02,1.41,1.19,2.56,2.58,2.54,1.41-.03,2.54-1.19,2.53-2.59-.01-1.4-1.2-2.57-2.58-2.55-1.4,.02-2.54,1.2-2.52,2.6Z"/><path class="cls-23" d="M694.89,790.4c-.98-1.03-1.85-2.28-3.03-3.1-2.69-1.87-5.55-2.06-8.43-.25-3.13,1.97-6.27,3.93-9.42,5.86-2.23,1.37-5-.1-5.1-2.68-.04-.9,.31-1.62,.95-2.24,1.63-1.56,3.6-2.55,5.64-3.44,1.92-.84,3.84-1.71,5.74-2.58,.5-.23,.89-.2,1.4,.04,2.33,1.09,4.74,2.02,7.03,3.19,1.51,.77,2.88,1.81,4.26,2.8,.84,.6,1.09,1.52,.95,2.39Z"/><path class="cls-23" d="M654.73,758.43c.06-3.9,1.55-7.97,4.13-11.67,.67-.96,1.64-1.18,2.46-.59,.82,.58,.91,1.55,.23,2.52-1.82,2.59-3.03,5.42-3.42,8.58-.51,4.09,.65,7.7,3.12,10.94,.95,1.25,1,2.18,.11,2.86-.87,.67-1.81,.37-2.75-.85-2.52-3.29-3.89-6.97-3.89-11.78Z"/><path class="cls-23" d="M662.06,758.75c.07-2.86,.96-5.59,2.67-8.05,.75-1.08,1.71-1.32,2.56-.69,.82,.6,.86,1.53,.17,2.59-2.05,3.13-2.85,6.44-1.26,10.01,.34,.76,.85,1.45,1.32,2.13,.62,.91,.57,1.87-.19,2.46-.75,.58-1.76,.42-2.43-.43-1.85-2.31-2.82-4.93-2.84-8.03Z"/></g><g><path class="cls-23" d="M154.55,780.15c-.29-.27-.62-.59-.96-.9-.53-.48-.8-.48-1.37-.02-2.54,2.05-5.29,3.77-8.24,5.16-4.52,2.13-9.24,3.37-14.29,3.06-.83-.05-1.65-.18-2.68-.3,.32-.22,.47-.34,.63-.43,7.31-4.3,14.63-8.61,21.95-12.9,.23-.13,.5-.25,.75-.28,4.19-.37,8.34-.2,12.38,1.1,.37,.12,.73,.27,1.23,.46-.43,.17-.74,.29-1.04,.42-1.46,.65-2.6,1.67-3.43,3.03-.73,1.2-1.47,2.38-2.25,3.63-.68-.49-1.31-.94-1.87-1.34-.23,.37-.4,.75-.65,1.05-1.35,1.63-2.74,3.23-4.08,4.87-.2,.24-.33,.64-.3,.95,.42,4.91,.87,9.81,1.32,14.72,.02,.23,.04,.46,.04,.69,0,.48-.24,.77-.7,.8-.47,.03-.74-.27-.79-.72-.09-.79-.15-1.59-.22-2.38-.4-4.49-.79-8.98-1.2-13.47-.05-.5,.09-.87,.41-1.25,1.5-1.75,2.97-3.53,4.48-5.28,.23-.27,.56-.44,.88-.68Z"/><path class="cls-23" d="M155.64,771.76c-2.15,.07-4.26,.19-6.37-.24-5.08-1.02-10.07-2.33-14.82-4.44-3.58-1.59-6.96-3.51-9.8-6.25-.55-.53-1.04-1.16-1.41-1.83-.86-1.58-.65-3.11,.46-4.51,1.25-1.57,2.96-2.49,4.74-3.27,.07,.03,.12,.03,.14,.06,2.2,3.45,5.22,6.1,8.4,8.58,5.35,4.17,11.11,7.7,17.04,10.98,.54,.3,1.07,.61,1.61,.92Z"/><path class="cls-23" d="M155.87,770.2c-2.56-1.5-5.15-2.95-7.68-4.5-4.85-2.97-9.57-6.13-13.78-9.97-1.85-1.69-3.58-3.48-4.78-5.71-.54-1.01-.95-2.08-.77-3.24,.26-1.77,1.57-2.69,3.01-3.45,.11-.06,.43,.14,.57,.3,2.49,2.78,4.97,5.57,7.45,8.36,5.29,5.95,10.58,11.91,15.87,17.86,.07,.08,.14,.15,.21,.23-.03,.05-.06,.09-.09,.14Z"/><path class="cls-23" d="M133.6,742.62c2.33-.62,4.44-.31,6.48,.63,3.08,1.41,5.51,3.66,7.4,6.38,3.68,5.29,6.92,10.85,9.34,16.84,.33,.81,.6,1.65,.89,2.48,.1,.29,.17,.6,.16,.97-8.06-9.07-16.13-18.14-24.27-27.3Z"/><path class="cls-23" d="M158.46,783.02c1.08-1.64,2-3.21,3.09-4.66,1.02-1.37,2.68-1.72,4.22-2.19,.14-.04,.36,.07,.51,.16,2.17,1.42,3.64,3.36,4.36,5.87,.13,.44,.04,.68-.33,.93-2.74,1.84-5.69,2.1-8.77,1.13-1.01-.32-1.96-.79-3.06-1.25Z"/><path class="cls-23" d="M138.76,803.09c.28-1.3,.52-2.42,.77-3.55,.62-2.82,1.24-5.65,1.87-8.46,.07-.32,.19-.65,.38-.92,1.45-2.15,2.93-4.3,4.39-6.44,.06-.09,.11-.18,.18-.25,.29-.33,.64-.4,1.01-.16,.37,.25,.44,.62,.22,.99-.24,.42-.53,.81-.8,1.2-1.05,1.54-2.08,3.1-3.17,4.61-.49,.68-.78,1.41-.96,2.22-.75,3.5-1.52,7-2.29,10.5-.03,.14-.04,.34-.13,.41-.25,.18-.56,.46-.8,.42-.27-.04-.48-.39-.67-.56Z"/><path class="cls-23" d="M159.17,803.23c-.78-.04-.91-.46-1.01-.91-.51-2.2-1.02-4.41-1.53-6.61-.49-2.1-.96-4.21-1.46-6.3-.13-.52-.05-.91,.35-1.3,1.32-1.25,2.62-2.54,3.93-3.81,.37-.36,.79-.45,1.16-.05,.34,.37,.25,.77-.09,1.12-.1,.1-.21,.21-.31,.31-1.04,1.01-2.06,2.03-3.12,3.02-.31,.29-.41,.56-.31,.98,.96,4.03,1.89,8.07,2.83,12.11,.06,.26,.18,.57,.1,.79-.11,.28-.4,.5-.52,.64Z"/><path class="cls-23" d="M170.67,786.32c0-1.54,1.22-2.75,2.75-2.75,1.52,0,2.76,1.25,2.75,2.76-.02,1.54-1.24,2.76-2.76,2.76-1.53,0-2.74-1.24-2.74-2.77Z"/><path class="cls-23" d="M176.07,788.97c.77,1.84,1.55,3.65,2.29,5.47,.16,.39,.03,.77-.39,.94-.42,.17-.8,.05-.99-.39-.77-1.79-1.52-3.58-2.3-5.43,.48-.2,.91-.38,1.39-.59Z"/></g><g><path class="cls-23" d="M420.74,780.15c-.29-.27-.62-.59-.96-.9-.53-.48-.8-.48-1.37-.02-2.54,2.05-5.29,3.77-8.24,5.16-4.52,2.13-9.24,3.37-14.29,3.06-.83-.05-1.65-.18-2.68-.3,.32-.22,.47-.34,.63-.43,7.31-4.3,14.63-8.61,21.95-12.9,.23-.13,.5-.25,.75-.28,4.19-.37,8.34-.2,12.38,1.1,.37,.12,.73,.27,1.23,.46-.43,.17-.74,.29-1.04,.42-1.46,.65-2.6,1.67-3.43,3.03-.73,1.2-1.47,2.38-2.25,3.63-.68-.49-1.31-.94-1.87-1.34-.23,.37-.4,.75-.65,1.05-1.35,1.63-2.74,3.23-4.08,4.87-.2,.24-.33,.64-.3,.95,.42,4.91,.87,9.81,1.32,14.72,.02,.23,.04,.46,.04,.69,0,.48-.24,.77-.7,.8-.47,.03-.74-.27-.79-.72-.09-.79-.15-1.59-.22-2.38-.4-4.49-.79-8.98-1.2-13.47-.05-.5,.09-.87,.41-1.25,1.5-1.75,2.97-3.53,4.48-5.28,.23-.27,.56-.44,.88-.68Z"/><path class="cls-23" d="M421.82,771.76c-2.15,.07-4.26,.19-6.37-.24-5.08-1.02-10.07-2.33-14.82-4.44-3.58-1.59-6.96-3.51-9.8-6.25-.55-.53-1.04-1.16-1.41-1.83-.86-1.58-.65-3.11,.46-4.51,1.25-1.57,2.96-2.49,4.74-3.27,.07,.03,.12,.03,.14,.06,2.2,3.45,5.22,6.1,8.4,8.58,5.35,4.17,11.11,7.7,17.04,10.98,.54,.3,1.07,.61,1.61,.92Z"/><path class="cls-23" d="M422.06,770.2c-2.56-1.5-5.15-2.95-7.68-4.5-4.85-2.97-9.57-6.13-13.78-9.97-1.85-1.69-3.58-3.48-4.78-5.71-.54-1.01-.95-2.08-.77-3.24,.26-1.77,1.57-2.69,3.01-3.45,.11-.06,.43,.14,.57,.3,2.49,2.78,4.97,5.57,7.45,8.36,5.29,5.95,10.58,11.91,15.87,17.86,.07,.08,.14,.15,.21,.23-.03,.05-.06,.09-.09,.14Z"/><path class="cls-23" d="M399.78,742.62c2.33-.62,4.44-.31,6.48,.63,3.08,1.41,5.51,3.66,7.4,6.38,3.68,5.29,6.92,10.85,9.34,16.84,.33,.81,.6,1.65,.89,2.48,.1,.29,.17,.6,.16,.97-8.06-9.07-16.13-18.14-24.27-27.3Z"/><path class="cls-23" d="M424.64,783.02c1.08-1.64,2-3.21,3.09-4.66,1.02-1.37,2.68-1.72,4.22-2.19,.14-.04,.36,.07,.51,.16,2.17,1.42,3.64,3.36,4.36,5.87,.13,.44,.04,.68-.33,.93-2.74,1.84-5.69,2.1-8.77,1.13-1.01-.32-1.96-.79-3.06-1.25Z"/><path class="cls-23" d="M404.95,803.09c.28-1.3,.52-2.42,.77-3.55,.62-2.82,1.24-5.65,1.87-8.46,.07-.32,.19-.65,.38-.92,1.45-2.15,2.93-4.3,4.39-6.44,.06-.09,.11-.18,.18-.25,.29-.33,.64-.4,1.01-.16,.37,.25,.44,.62,.22,.99-.24,.42-.53,.81-.8,1.2-1.05,1.54-2.08,3.1-3.17,4.61-.49,.68-.78,1.41-.96,2.22-.75,3.5-1.52,7-2.29,10.5-.03,.14-.04,.34-.13,.41-.25,.18-.56,.46-.8,.42-.27-.04-.48-.39-.67-.56Z"/><path class="cls-23" d="M425.36,803.23c-.78-.04-.91-.46-1.01-.91-.51-2.2-1.02-4.41-1.53-6.61-.49-2.1-.96-4.21-1.46-6.3-.13-.52-.05-.91,.35-1.3,1.32-1.25,2.62-2.54,3.93-3.81,.37-.36,.79-.45,1.16-.05,.34,.37,.25,.77-.09,1.12-.1,.1-.21,.21-.31,.31-1.04,1.01-2.06,2.03-3.12,3.02-.31,.29-.41,.56-.31,.98,.96,4.03,1.89,8.07,2.83,12.11,.06,.26,.18,.57,.1,.79-.11,.28-.4,.5-.52,.64Z"/><path class="cls-23" d="M436.86,786.32c0-1.54,1.22-2.75,2.75-2.75,1.52,0,2.76,1.25,2.75,2.76-.02,1.54-1.24,2.76-2.76,2.76-1.53,0-2.74-1.24-2.74-2.77Z"/><path class="cls-23" d="M442.26,788.97c.77,1.84,1.55,3.65,2.29,5.47,.16,.39,.03,.77-.39,.94-.42,.17-.8,.05-.99-.39-.77-1.79-1.52-3.58-2.3-5.43,.48-.2,.91-.38,1.39-.59Z"/></g><g><path class="cls-23" d="M939.24,530.28c.79,.58,1.55,1.23,2.39,1.74,3.46,2.12,7.31,3.15,11.27,3.8,2.12,.35,4.27,.5,6.41,.74,.14,.02,.27,.05,.41,.08-.01,.1,0,.17-.03,.19-3.73,2.7-6.53,6.27-9.21,9.95-1.06,1.46-2.14,2.92-3.16,4.41-1.08,1.57-2.49,2.75-4.1,3.74-1.01,.62-1.98,.64-2.87-.11-.72-.61-1.45-1.26-1.97-2.03-4.93-7.28-9.15-14.95-11.9-23.32-1.75-5.31-2.04-10.77-.27-16.18,.48-1.46,1.12-2.9,1.88-4.24,2.36-4.15,6.05-6.2,10.78-6.26,6.35-.07,12.7-.02,19.05-.02,.37,0,.74,0,1.27,0-.08-1.28-.09-2.5-.24-3.71-.49-3.9-1-7.79-1.56-11.68-.12-.84-.48-1.65-.74-2.47-.25-.8-.04-1.24,.78-1.36,2.47-.35,4.95-.68,7.43-.97,.93-.11,1.23,.2,1.15,1.14-.32,4.15-.67,8.3-1,12.45-.17,2.14-.32,4.29-.5,6.59,.65,0,1.22,.05,1.77-.03,.18-.03,.4-.38,.44-.61,.77-4.15,1.5-8.3,2.25-12.45,.51-2.85,1.02-5.7,1.56-8.55,.21-1.1,.68-1.45,1.78-1.45,1.66,0,3.33,0,4.99,0,2.04,0,2.51,.65,1.87,2.62-2.07,6.48-4.15,12.95-6.22,19.43-.09,.29-.17,.59-.28,.94,.27,.04,.47,.09,.66,.09,2.81-.05,5.63-.09,8.44-.15,3-.06,5.97,.15,8.86,1.02,.63,.19,1.25,.44,1.84,.72,3.4,1.64,4.74,4.48,3.91,8.17-.84,3.72-3.02,6.62-5.78,9.08-7.28,6.48-15.93,10.36-25.25,12.82-1.36,.36-2.91,.07-4.36-.08-4.03-.4-8.06-.79-12.06-1.35-3.21-.46-6.36-1.28-9.26-2.83-.09-.05-.2-.05-.3-.07-.04,.06-.08,.13-.12,.19Zm.67-11.44c0,.69-.02,1.38,0,2.07,.06,1.4,.67,2.48,1.96,3.11,.93,.45,1.84,.94,2.81,1.29,5.18,1.88,10.54,2.95,15.99,3.63,1.87,.23,3.77,.52,5.62-.17,6.27-2.33,12.22-5.27,17.71-9.11,2.1-1.47,4.1-3.08,5.45-5.32,.78-1.29,1.13-2.67,.31-4.07-.84-1.43-2.17-1.95-3.79-1.9-4.25,.12-8.5,.24-12.75,.29-5.86,.07-11.72,.14-17.58,.1-3.5-.02-7.01-.15-10.49-.41-1.47-.11-2.47,.29-3.19,1.48-.41,.68-.77,1.42-1.04,2.17-.79,2.21-1.08,4.51-1.03,6.85Z"/><path class="cls-23" d="M955.89,523.74c-.55,0-1.09,.02-1.64,0-.64-.03-1.01-.41-1.02-1.05,0-.65,.38-1.02,1.02-1.05,.75-.03,1.49,0,2.24-.02,2.83-.04,4.62-1.6,5.05-4.41,.52-3.35,3-5.73,6.37-6,3.12-.25,6.25-.44,9.37-.6,.39-.02,.9,.2,1.18,.48,.18,.19,.21,.8,.04,1.01-.25,.31-.73,.55-1.13,.59-3.09,.25-6.19,.45-9.28,.66-2.16,.15-3.97,1.77-4.36,3.89-.81,4.52-3.19,6.5-7.83,6.5Z"/><path class="cls-23" d="M973.56,521.67c.03,1.2-.39,1.65-1.6,1.51-1.1-.14-2.2-.35-3.28-.64-1.03-.27-1.41-.87-1.25-1.93,.16-1.05,.24-2.02-.57-2.9-.2-.22-.16-.88,.03-1.17,.21-.32,.73-.63,1.11-.61,2.96,.13,5.5,2.79,5.56,5.75Z"/><path class="cls-23" d="M954.94,513.52c1.3,.05,2.38,.55,3.37,1.26,.58,.42,.7,1.05,.23,1.57-.9,1-1.84,1.96-2.84,2.84-.61,.54-1.36,.42-1.96-.12-.84-.76-1.65-1.47-2.94-1.29-.27,.04-.79-.43-.89-.76-.11-.37-.03-1,.22-1.24,1.37-1.26,2.92-2.21,4.82-2.27Z"/></g><g><path class="cls-23" d="M686.18,508c.75,0,1.49,0,2.24,0,.21,0,.29-.06,.33-.27,1.13-5.84,3.08-11.4,5.74-16.72,.72-1.44,1.54-2.84,2.35-4.23,1.39-2.39,3.04-4.58,4.81-6.69,.1-.12,.2-.24,.33-.32,.29-.17,.66-.09,.87,.17,.21,.26,.2,.55-.05,.84-4.34,5.06-7.51,10.79-9.86,17.01-1.21,3.19-2.17,6.46-2.86,9.8-.05,.24-.09,.4,.27,.38,3.32-.12,6.61-.43,9.86-1.09,.2-.04,.32-.08,.31-.33-.08-2.15,.13-4.28,.47-6.4,.84-5.25,2.58-10.18,5.16-14.83,.62-1.11,1.3-2.17,1.99-3.23,.31-.48,.51-.56,.93-.46,.39,.09,.58,.65,.35,.98-2.25,3.19-4,6.64-5.27,10.33-1.37,3.95-2.19,8.01-2.34,12.19-.01,.38,0,.77-.01,1.16,0,.12-.02,.25,.19,.19,2.05-.56,4.07-1.18,5.82-2.45,.34-.25,.65-.54,.89-.89,.46-.66,.47-1.28,0-1.94-.35-.51-.82-.87-1.33-1.21-.14-.09-.29-.17-.42-.28-.28-.22-.35-.58-.16-.87,.17-.27,.53-.38,.83-.21,1.24,.71,2.29,1.57,2.69,3.06,.12,.44,.07,.83,.03,1.23-.17,1.57-.38,3.13-.56,4.7-.16,1.39-.29,2.78-.45,4.18-.18,1.57-.38,3.13-.56,4.7-.16,1.38-.29,2.77-.45,4.15-.15,1.33-.33,2.66-.48,4-.11,.95-.2,1.9-.31,2.85-.16,1.38-.33,2.76-.49,4.14-.11,.93-.2,1.86-.31,2.79-.16,1.38-.33,2.76-.48,4.14-.11,.93-.2,1.85-.31,2.78-.17,1.39-.28,2.79-.48,4.18-.13,.93-.2,1.88-.31,2.82-.13,1.18-.28,2.35-.41,3.53-.06,.48-.13,.95-.15,1.43-.03,.51-.25,.92-.56,1.29-.52,.61-1.14,1.09-1.87,1.45-1.1,.54-2.26,.91-3.44,1.25-.73,.21-1.47,.33-2.21,.49-1.08,.23-2.18,.29-3.27,.45-2.49,.35-4.99,.23-7.49,.2-.54,0-1.07-.01-1.61-.06-.52-.04-1.02-.16-1.54-.22-.91-.1-1.82-.18-2.72-.36-1.52-.3-3.02-.67-4.45-1.25-.99-.4-1.93-.9-2.67-1.69-.44-.48-.7-1.01-.78-1.69-.09-.74-.16-1.49-.28-2.23-.09-.57-.08-1.16-.15-1.73-.1-.85-.25-1.69-.35-2.54-.07-.64-.08-1.28-.16-1.92-.1-.84-.28-1.67-.34-2.51-.05-.8-.14-1.6-.25-2.39-.13-.91-.08-1.84-.32-2.75-.13-.46-.13-.98-.18-1.47-.07-.72-.16-1.44-.24-2.16-.04-.37-.05-.75-.11-1.12-.13-.74-.06-1.49-.26-2.22-.12-.45-.13-.93-.18-1.39-.09-.9-.11-1.81-.26-2.69-.09-.57-.05-1.15-.18-1.7-.22-.91-.17-1.84-.31-2.75-.11-.72-.23-1.43-.32-2.15-.08-.66-.09-1.33-.16-1.99-.1-.81-.27-1.62-.33-2.44-.04-.56-.1-1.13-.18-1.68-.1-.71-.13-1.43-.26-2.15-.1-.54-.08-1.1-.15-1.65-.07-.45-.09-.91-.18-1.35-.07-.34-.06-.68-.1-1.02-.06-.5-.16-1-.18-1.5-.02-.57-.12-1.14-.21-1.71-.09-.57-.07-1.14-.2-1.7-.07-.34,.14-.64,.24-.94,.3-.85,.88-1.51,1.59-2.04,1.85-1.37,3.99-2.04,6.18-2.62,2.17-.57,4.38-.93,6.61-1.18,1.9-.22,3.81-.34,5.72-.4,.43-.01,.68,.24,.69,.67,.01,.37-.23,.6-.66,.62-1.96,.07-3.92,.18-5.87,.42-3.08,.38-6.12,.92-9.03,2.06-1.2,.47-2.37,1.02-3.31,1.95-.96,.95-.96,1.87,0,2.82,.79,.78,1.77,1.28,2.78,1.71,2.31,.98,4.74,1.53,7.2,1.94,2.61,.43,5.23,.65,7.87,.77Zm14.23,7.54h0c-.05-.08-.15-.07-.23-.08-1.08-.26-2.16-.46-3.26-.63-3.2-.48-6.42-.65-9.65-.6-3.66,.06-7.28,.4-10.85,1.25-1.75,.42-3.46,.95-5.03,1.85-.5,.29-.97,.63-1.35,1.07-.61,.71-.62,1.39-.02,2.11,.29,.35,.63,.63,1.01,.87,2.12,1.3,4.47,1.92,6.88,2.38,.73,.21,1.48,.3,2.23,.4,3.2,.46,6.42,.61,9.65,.54,3.47-.08,6.92-.41,10.31-1.2,1.86-.44,3.68-.98,5.33-1.97,.57-.34,1.1-.73,1.46-1.32,.27-.45,.3-.9,.05-1.37-.21-.39-.5-.71-.85-.97-1.67-1.23-3.61-1.83-5.59-2.31-.03,0-.06,0-.09,0Zm-26.11,38.79c.1,.16,.28,.23,.43,.31,1.5,.86,3.14,1.33,4.82,1.68,4.81,.99,9.66,1.07,14.53,.51,2.16-.25,4.28-.67,6.32-1.45,.9-.35,1.78-.75,2.49-1.44,.3-.29,.45-.63,.49-1.05,.09-.98,.21-1.96,.32-2.95,.47-4.14,.95-8.28,1.42-12.42,.45-3.92,.9-7.85,1.34-11.77,.08-.75,.2-1.5,.22-2.26,.12-.42,.13-.85,.17-1.32-2.18,1.3-3.16,1.72-5.3,2.29-4.24,1.13-8.58,1.51-12.95,1.55-2.65,.02-5.3-.12-7.93-.49-3.79-.53-7.54-1.19-10.84-3.35-.05,.15,0,.3,.02,.45,.4,3.47,.8,6.94,1.19,10.41,.76,6.64,1.52,13.28,2.27,19.92,.07,.65,.45,1.07,.98,1.37Zm34.54-49.41c-1.71,1.28-3.58,1.98-5.5,2.54-3.35,.97-6.78,1.44-10.25,1.67-5.53,.37-11.03,.16-16.48-.89-2.44-.47-4.83-1.11-7.07-2.25-.58-.29-1.12-.65-1.71-1.08,.48,4.17,.94,8.25,1.41,12.33,.05-.01,.08,0,.1-.02,1.14-1.05,2.51-1.68,3.95-2.19,3.32-1.17,6.77-1.67,10.26-1.94,3.94-.31,7.87-.25,11.79,.21,2.71,.32,5.38,.79,7.97,1.69,1.39,.49,2.73,1.08,3.86,2.06,.07,.06,.11,.16,.26,.13,.46-4.06,.93-8.12,1.4-12.28Z"/><path class="cls-23" d="M686.44,502.5c-.47,0-.76-.44-.59-.93,.32-.88,.67-1.75,1.01-2.63,.74-1.88,1.6-3.7,2.55-5.48,1.12-2.1,2.32-4.16,3.61-6.17,.61-.94,1.21-1.87,1.87-2.77,.23-.32,.71-.46,1-.27,.28,.18,.35,.64,.11,.98-1.1,1.6-2.18,3.22-3.17,4.89-2.26,3.78-4.26,7.69-5.75,11.84-.13,.35-.35,.53-.65,.53Z"/><path class="cls-23" d="M695.37,503.92c.21-1.52,.49-3.01,.86-4.48,.82-3.32,2.03-6.49,3.48-9.58,.21-.45,.56-.61,.92-.44,.38,.17,.46,.55,.24,1.02-1.88,4-3.32,8.15-4.05,12.53-.06,.37-.11,.74-.17,1.11-.07,.38-.36,.6-.72,.55-.35-.04-.58-.34-.56-.7Z"/><path class="cls-23" d="M704.32,500.95c.32-4.08,1.18-8.02,3.02-11.7,.08-.16,.17-.32,.26-.48,.23-.4,.59-.54,.93-.36,.33,.17,.45,.65,.23,1.01-.99,1.61-1.56,3.39-2.06,5.2-.59,2.11-.92,4.26-1.09,6.43-.04,.57-.52,.87-.97,.61-.27-.16-.35-.42-.32-.71Z"/><path class="cls-23" d="M705.2,481c.3-.02,.53,.11,.65,.37,.11,.24,.07,.49-.09,.71-1.19,1.64-2.24,3.38-3.24,5.15-.05,.08-.09,.17-.14,.25-.23,.4-.58,.54-.93,.36-.35-.19-.44-.58-.2-1,.45-.8,.91-1.59,1.37-2.38,.63-1.08,1.27-2.15,2.04-3.14,.14-.18,.29-.34,.53-.32Z"/><path class="cls-23" d="M706.68,523.48c-.02,.76-.14,1.51-.22,2.26-.44,3.93-.9,7.85-1.34,11.77-.47,4.14-.95,8.28-1.42,12.42-.11,.98-.23,1.96-.32,2.95-.04,.42-.19,.76-.49,1.05-.71,.69-1.58,1.09-2.49,1.44-2.04,.78-4.16,1.2-6.32,1.45-4.87,.56-9.72,.48-14.53-.51-1.68-.35-3.32-.82-4.82-1.68-.15-.09-.33-.15-.43-.31-.1-.95-.2-1.91-.31-2.86-.13-1.13-.27-2.26-.4-3.4-.16-1.41-.3-2.82-.46-4.23-.16-1.44-.33-2.89-.49-4.33-.13-1.13-.25-2.27-.38-3.4-.16-1.38-.33-2.77-.49-4.15-.13-1.18-.23-2.37-.38-3.55-.19-1.4-.32-2.81-.49-4.22-.04-.33,.03-.38,.32-.24,.71,.35,1.45,.65,2.19,.94,1.06,.42,2.16,.76,3.26,1.04,1.21,.3,2.44,.49,3.69,.63,1.78,.2,3.57,.31,5.36,.39,2.26,.1,4.52-.03,6.78-.14,.7-.04,1.39-.11,2.08-.18,1.05-.12,2.1-.24,3.15-.38,1.23-.17,2.44-.38,3.65-.66,1.82-.42,3.52-1.12,5.13-2.06,.05-.03,.12-.02,.17-.03Zm-14.86,7.93c-.22,.01-.43,.01-.65,.05-.36,.05-.57,.33-.55,.69,.02,.33,.27,.57,.61,.59,.17,0,.34,0,.51,0,1.58,0,2.49,1.29,1.98,2.79-.27,.78-.79,1.07-1.6,.88-.46-.11-.82-.4-1.18-.67-.85-.64-1.79-.8-2.8-.5-.43,.13-.84,.3-1.24,.5-.42,.22-.85,.39-1.32,.48-.76,.14-1.46,.03-2.07-.48-.15-.12-.18-.2-.03-.37,.78-.86,.84-1.97,.16-2.95-1.79-2.59-4.24-4.11-7.39-4.47-1.23-.14-2.3,.64-2.53,1.81-.24,1.21,.45,2.34,1.67,2.65,1.89,.48,3.47,1.45,4.75,2.93,.42,.49,.97,.75,1.62,.75,.23,0,.37,.08,.52,.24,1.04,1.16,2.33,1.45,3.81,1.11,.7-.16,1.32-.51,1.97-.81,.81-.37,1.55-.33,2.26,.26,.25,.21,.53,.39,.82,.53,1.71,.82,3.39,.22,3.9-1.72,.5-1.93-.53-4.22-3.2-4.28Zm-5.06,18.93c-1.49-.13-2.61,.7-2.82,2.09-.06,.4,.15,.72,.5,.79,.35,.07,.66-.13,.76-.5,.27-.94,.61-1.17,1.57-1.07,1.98,.21,3.67-.97,4.17-2.9,.16-.6,.13-1.22,.27-1.82,.18-.76,.57-1.32,1.38-1.49,.22-.05,.37,0,.54,.16,.65,.61,1.44,.82,2.27,.52,2.96-1.06,5.02-3.05,6.11-6.02,.2-.54,.19-1.09-.04-1.62-.36-.82-1-1.3-1.89-1.36-.95-.06-1.68,.36-2.13,1.21-.86,1.63-2.09,2.86-3.73,3.7-.73,.37-1.17,.97-1.22,1.79-.02,.28-.14,.36-.38,.42-.94,.24-1.57,.84-1.95,1.72-.26,.6-.32,1.23-.38,1.87-.17,1.74-1.29,2.68-3.03,2.53Z"/><path class="cls-23" d="M700.5,515.54c1.98,.48,3.92,1.08,5.59,2.31,.35,.26,.65,.57,.85,.97,.25,.47,.22,.92-.05,1.37-.35,.59-.89,.98-1.46,1.32-1.65,.99-3.47,1.53-5.33,1.97-3.39,.8-6.84,1.13-10.31,1.2-3.23,.07-6.45-.08-9.65-.54-.75-.11-1.5-.19-2.23-.4-.04-.04-.08-.09-.13-.11-1.06-.5-2.13-1-3.19-1.51-.69-.33-1.38-.67-2.05-1.04-.53-.28-1.06-.56-1.42-1.08-.4-.56-.4-.77,.09-1.27,.49-.49,1.13-.77,1.74-1.08,1.28-.65,2.61-1.16,4.01-1.46,1.47-.31,2.95-.5,4.44-.68,1.95-.24,3.9-.35,5.85-.39,.83-.02,1.66,0,2.49,.04,1.2,.07,2.4,0,3.61,.08,.95,.07,1.9,.04,2.85,.1,.49,.04,.98,.03,1.47,.07,.91,.09,1.82,.16,2.73,.11,0,0,0,0,0,0,.03,.08,.06,.04,.09,0Zm-16.24,.53c-1.46,0-2.84,.31-4.16,.92-1.14,.53-1.66,1.74-1.24,2.85,.43,1.12,1.59,1.67,2.81,1.3,1.74-.53,3.46-.52,5.19,.03,.83,.27,1.57,.12,2.22-.45,.13-.12,.22-.14,.37-.04,1.07,.67,2.14,.58,3.22,0,.47-.26,.84-.64,1.27-.95,1.18-.87,2.46-.8,3.47,.18,.16,.15,.28,.33,.43,.49,.91,.99,2.3,1.13,3.33,.34,.3-.23,.39-.6,.2-.89-.19-.3-.55-.38-.89-.2-.05,.03-.1,.07-.15,.1-.61,.35-1.15,.25-1.6-.3-1.58-1.93-3.88-2.16-5.8-.57-.29,.24-.57,.49-.89,.68-.65,.38-1.31,.46-1.97,0-.17-.12-.25-.24-.26-.47-.03-.9-.44-1.6-1.26-2-1.35-.66-2.78-1-4.29-1.01Z"/><path class="cls-23" d="M700.5,515.54s-.07,.07-.09,0c.03,0,.06,0,.09,0Z"/><path class="cls-23" d="M676.07,529.22c2.12,.23,3.98,1.11,5.5,2.7,.39,.41,.75,.85,1.05,1.33,.31,.49,.22,1.02-.22,1.34-.43,.31-.95,.25-1.32-.18-1.43-1.63-3.18-2.73-5.29-3.24-.56-.13-.87-.58-.8-1.08,.07-.53,.49-.88,1.09-.86Z"/><path class="cls-23" d="M700.35,539.33c0,.22-.09,.42-.18,.62-.85,2.05-2.24,3.58-4.27,4.53-.28,.13-.56,.28-.85,.38-.5,.18-.98-.02-1.18-.47-.21-.47-.04-.97,.45-1.22,1.88-.96,3.3-2.38,4.29-4.24,.21-.41,.64-.61,1.01-.51,.43,.11,.74,.5,.73,.92Z"/><path class="cls-23" d="M680.01,518.97c.02-.36,.25-.64,.63-.81,2.05-.93,4.15-1.06,6.29-.33,.33,.11,.66,.24,.97,.39,.48,.22,.71,.68,.56,1.07-.23,.61-.61,.83-1.19,.64-2.01-.64-4.02-.66-6.03-.01-.65,.21-1.23-.23-1.23-.94Z"/></g><g><path class="cls-23" d="M411.51,567c-2.46-.98-3.36-2.78-3.32-5.43,.11-7.89,0-15.78,.08-23.67,0-.9,.59-1.79,.89-2.69,.29-.88,.86-1.79,.78-2.64-.61-7.16-1.03-14.32,.19-21.46,.03-.2-.07-.42-.5-.71-.19,.79-.54,1.58-.55,2.37-.11,5.56-.17,11.13-.21,16.69,0,1.24,.25,2.49,.19,3.72-.07,1.5-.99,2.39-2.5,2.5-1.52,.11-2.68-.68-2.82-2.12-.88-8.69-1.55-17.41,.86-25.96,.57-2.03,1.77-4.02,3.11-5.68,1.57-1.94,2.76-1.7,4.25,.26,2.93,3.85,8.5,4.65,12.08,1.42,1.54-1.39,2.71-1.54,4.35-.48-.26,.33-.64,.66-.76,1.06-.09,.32,.03,.86,.27,1.07,.24,.21,.95,.29,1.07,.13,1.53-1.98,3-.68,4.5,0,.15,.07,.33,.05,.57,.08,.12-1.18-1.98-2.25-.08-3.5,1.11-.74,2.04-1.75,3.42-2.96,1.13,2.75,2.42,5.16,3.11,7.74,.96,3.61-1.48,6.01-5.09,5.15-1.99-.48-3.87-1.42-5.78-2.18-.81-.32-1.59-.73-2.76-1.28,0,.94,0,1.61,0,2.27,0,16.96-.04,33.93,.04,50.89,.01,2.65-.85,4.46-3.32,5.43h-2.13c-2.42-1.16-3.18-3.13-3.15-5.75,.09-9.35,.04-18.7,.03-28.06,0-.47,.06-.97-.05-1.41-.06-.25-.45-.63-.64-.6-.31,.04-.75,.32-.85,.59-.15,.42-.06,.93-.06,1.41,0,9.35-.06,18.71,.04,28.06,.03,2.63-.71,4.6-3.14,5.76h-2.13Z"/><path class="cls-23" d="M426.5,496.91c.01,4.38-3.35,7.82-7.66,7.84-4.43,.02-7.85-3.42-7.83-7.86,.03-4.34,3.46-7.8,7.75-7.8,4.28,0,7.72,3.48,7.74,7.82Zm-2.94,2.71c-2.87-1.05-6.52-.23-8.04,1.73l7.58-1.04c.15-.22,.29-.44,.46-.69Z"/><path class="cls-23" d="M428.01,504.31c3.27-3.12,6.52-6.27,9.84-9.34,.28-.26,1.03,0,1.56,0-.11,.52-.04,1.24-.36,1.54-2.11,1.98-4.24,3.96-6.5,5.77-1.23,.99-2.74,1.64-4.12,2.44-.14-.14-.29-.28-.43-.42Zm3.59-3c.17,.19,.34,.38,.51,.56,1.57-1.42,3.15-2.84,4.72-4.26l-.44-.49c-1.6,1.4-3.19,2.79-4.79,4.19Z"/><path class="cls-23" d="M420.02,475.6c-.05,.57,0,.79-.09,.88-1.45,1.55-1.4,3.17-.56,5.05,.84,1.88,.35,3.56-1.26,4.7,1.7-2.14,.63-4.12,.04-6.21-.45-1.62,.27-3.09,1.86-4.42Z"/><path class="cls-23" d="M421.9,486.21c1.75-2.15,.73-4.12,0-6.18-.51-1.45,.46-3.31,2.05-4.2-.25,.48-.34,.8-.53,1.03-1.05,1.29-1.1,2.61-.45,4.13,.97,2.29,.66,3.96-1.07,5.22Z"/><path class="cls-23" d="M416.16,476.01c-1.59,1.9-1.31,3.76-.48,5.85,.59,1.51,.3,3.14-1.15,4.35,1.36-2.08,.59-3.98-.11-6.01-.57-1.64,.19-3.16,1.75-4.19Z"/><path class="cls-23" d="M434.77,496.72c-1.15,1.03-2.16,1.94-3.28,2.94-.11-2.29,.89-3.21,3.28-2.94Z"/><path class="cls-23" d="M431.61,501.32c1.6-1.4,3.19-2.79,4.79-4.19l.44,.49c-1.57,1.42-3.15,2.84-4.72,4.26-.17-.19-.34-.38-.51-.56Z"/></g><g><path class="cls-23" d="M115.92,518.6c-.36-.82-.71-1.55-1-2.3-1.25-3.31-.34-5.72,2.77-7.42,1.82-1,3.82-1.49,5.81-1.98,1.18-.29,2.3-.71,3.35-1.35,.85-.53,1.76-.95,2.65-1.41,.88-.46,1.8-.55,2.76-.33,.58,.14,1.18,.23,1.72,.47,.41,.18,.73,.54,1.1,.83,.42,.33,.82,.71,1.28,.99,.55,.33,1.17,.55,1.74,.87,.68,.39,.69,.97-.03,1.21-1.1,.37-2.25,.62-3.4,.86-.24,.05-.54-.13-.8-.2-.45-.13-.9-.3-1.36-.39-.49-.09-.98,0-1.27,.44-.62,.93-.94,1.98-1.15,3.05,.93,.39,1.82,.76,2.7,1.15,.48,.21,.89,.47,1.19,.97,.18,.31,.69,.43,1.04,.65,.14,.09,.26,.2,.39,.3-.11,.13-.19,.29-.33,.38-.72,.49-1.43,.69-2.36,.41-1.54-.46-3.13-.76-4.71-1.05-.85-.16-1.41-.11-1.4,1.16,0,.76-.33,1.37-.95,1.85-.7,.53-.7,.95,.05,1.42,.62,.39,1.31,.67,1.98,.96,.44,.19,.71,.45,.81,.94,.14,.7,.33,.85,1.07,.89,.79,.05,1.58,.07,2.37,.11,.28,.02,.56,.06,.83,.11,.32,.07,.53,.23,.53,.61,0,.4-.25,.59-.58,.62-.54,.04-1.09,.05-1.63,0-1.43-.12-2.87-.27-4.3-.4-.48-.05-.89-.19-1.28-.53-.21-.18-.64-.25-.92-.17-2.65,.69-4.96-.38-7.29-1.37-.17-.07-.31-.23-.48-.32-.24-.13-.49-.34-.75-.35-1.28-.07-2.56-.09-3.84-.12-2.33-.06-4.67-.03-6.98-.51-.32-.07-.65-.16-.95-.28-.63-.25-1.05-.9-.96-1.58,.03-.24,.22-.52,.42-.64,.22-.14,.47-.05,.65,.25,.09,.15,.38,.24,.59,.26,1.79,.22,3.59,.45,5.39,.61,1.7,.15,3.4,.22,5.1,.33,.12,0,.24,0,.45,0Z"/><path class="cls-23" d="M120.1,555.57c-.78,.39-1.61,.29-2.34-.41-.34-.32-.63-.71-.94-1.06-.56-.65-.79-.63-1.24,.12-.18,.3-.32,.63-.53,.91-.23,.3-.48,.61-.79,.83-.94,.66-1.94,.47-2.51-.53-.32-.56-.54-1.18-.77-1.78-.13-.34-.32-.54-.7-.6-.6-.09-1.21-.21-1.8-.39-.95-.28-1.26-.74-1.3-1.73-.05-1.16,.39-2.14,1.02-3.09,.35-.53,.67-1.12,.8-1.73,.2-.97-.14-1.83-.89-2.51-.81-.74-1.6-1.5-1.87-2.61-.08-.34-.16-.69-.17-1.03-.01-.49,.34-.84,.8-.88,.44-.04,.91,.23,.94,.67,.08,1.11,.76,1.8,1.5,2.5,1.52,1.44,1.93,3.18,1.25,5.14-.19,.55-.57,1.04-.89,1.54-.39,.61-.77,1.22-.64,2.05,.57,.11,1.15,.23,1.73,.33,.91,.16,1.52,.66,1.84,1.53,.2,.54,.42,1.07,.69,1.73,.3-.51,.55-.9,.78-1.3,1.01-1.77,2.82-1.94,4.13-.37,.3,.36,.59,.72,.93,1.12,.24-.39,.42-.71,.62-1.01,.19-.27,.38-.55,.61-.79,.32-.35,.72-.49,1.19-.32,.5,.18,.73,.56,.72,1.05,0,.54-.08,1.08-.17,1.62-.06,.38-.02,.69,.37,.81,.68,.21,1.36,.47,2.06,.54,2.67,.28,4.51,2.09,4.72,4.74,.08,1.02,.29,1.97,1.05,2.73,.35,.36,.28,.91-.06,1.23-.37,.34-.88,.32-1.28-.05-1.03-.96-1.39-2.2-1.48-3.55-.13-1.96-1.25-3.11-3.23-3.29-1.09-.1-2.17-.29-3.05-1.01-.39-.32-.71-.73-1.09-1.13Z"/><path class="cls-23" d="M146.9,554.45c-5.27,0-10.55,0-15.82,0-.4,0-.81-.02-1.2-.09-.51-.09-.8-.52-.73-.99,.07-.46,.49-.79,.97-.79,6.66,.03,13.32,.07,19.98,.08,4.38,0,8.75-.05,13.13-.08,.11,0,.21,0,.32,0,.59,.04,.96,.38,.97,.9,0,.51-.36,.89-.95,.9-1.35,.03-2.71,.05-4.06,.05-4.2,0-8.4,0-12.6,0,0,0,0,.01,0,.02Z"/><path class="cls-23" d="M187.61,537.68c.13-1.32,.12-2.64-.74-3.78-.16-.21-.25-.46-.36-.7-.94-2.23-1.51-4.56-1.92-6.93-.23-1.32-.18-2.7-.76-3.96-.86-1.86-1.7-3.73-2.51-5.61-.14-.33-.2-.76-.11-1.1,.35-1.25,.74-2.49,1.19-3.7,.37-1.01,.22-1.93-.23-2.84-.13-.27-.26-.54-.42-.79-1.19-1.9-.82-1.81-3.24-2-1.82-.14-3.66-.19-5.31-1.13-.09-.05-.2-.09-.3-.1-1.09-.04-1.94-.67-2.84-1.17-.59-.33-1.16-.72-1.66-1.18-.87-.8-.79-1.63,.17-2.32,.41-.29,.83-.59,1.28-.83,1.24-.64,1.85-1.73,2.18-3.01,.57-2.18,.53-4.38,.27-6.59-.12-1.01-.62-1.77-1.38-2.39-2.99-2.43-7.54-2.44-10.54-.03-.81,.65-1.36,1.46-1.42,2.54-.03,.46-.11,.91-.14,1.36-.13,1.8,0,3.58,.47,5.32,.4,1.45,1.26,2.5,2.71,3.07,0-.68-.04-1.33,.01-1.97,.04-.48,.09-1,.3-1.42,.57-1.19,1.82-1.74,3.08-1.44,1.2,.28,2.06,1.36,2.08,2.72,.04,2.16,.05,4.32,.05,6.48,0,2.78-.04,5.55-.04,8.33,0,8.1,0,16.2-.02,24.31,0,.51-.1,1.07-.31,1.52-.57,1.22-1.67,1.55-2.93,1.55-2.67-.01-5.34-.01-8.01-.02-.19,0-.37,0-.47,0-1.2,3.76-.19,7.32,.53,10.92,.24,0,.43,0,.63,0,2.25,0,4.5-.03,6.75-.02,1.39,0,2.55,1.09,2.7,2.47,.14,1.33-.79,2.64-2.13,2.91-.47,.1-.97,.09-1.46,.1-1.77,.01-3.55,0-5.37,0,.62,2.82,1.22,5.58,1.82,8.33h12.87c.32-1.5,.64-2.97,.95-4.44,.89-4.26,1.81-8.51,2.65-12.77,.26-1.33,.47-2.72,.4-4.06-.16-3.11-.95-6.12-1.73-9.13-.13-.48-.4-.93-.6-1.39-.1-.2-.21-.41-.31-.61-.11-.36-.22-.72-.33-1.08-.57-1.67-.77-3.38-.19-5.06,.8-2.34,1.24-4.74,1.43-7.2,.02-.2,.12-.49,.26-.56,.15-.07,.43,.05,.6,.16,.17,.1,.31,.29,.41,.46,.5,.86,1,1.73,1.46,2.61,.82,1.58,1.66,3.16,2.39,4.79,.27,.6,.43,1.36,.33,1.99-.16,.97-.07,1.89,.13,2.82,.91,4.12,2.42,8.05,3.93,11.98,.05,.13,.18,.31,.28,.32,.81,.06,1.63,.13,2.45,.11,.41,0,.58-.34,.54-.75-.02-.28-.05-.56-.02-.84,.16-1.41,.36-2.82,.5-4.23Zm-16.69,26.74h-.52c.27-.29,.55-.58,.82-.87,.02,.03,.04,.06,.06,.08-.11,.24-.22,.48-.35,.78Z"/><path class="cls-23" d="M171.27,563.63c-.11,.24-.22,.48-.35,.78-.09,0-.3,0-.52,0,.27-.29,.54-.58,.82-.87,.02,.03,.04,.06,.06,.08Z"/><path class="cls-23" d="M165.63,504.89c0-2.43,.01-4.85,0-7.28,0-.6-.49-.96-1.07-.85-.48,.09-.72,.44-.72,1.07,0,3.76,0,7.52,0,11.28,0,8.75,0,17.51,0,26.26v.82h-13.85c0-.09,0-.17,.02-.23,.33-1.11,.72-2.2,.97-3.33,.27-1.17,.44-2.37,.59-3.57,.06-.44-.13-.91-.1-1.35,.09-1.29,.65-2.43,1.25-3.55,.97-1.81,1.99-3.59,2.99-5.38,.06-.11,.14-.23,.24-.28,.24-.12,.51-.28,.75-.25,.12,.02,.24,.42,.26,.66,.17,2.21,.49,4.4,1.24,6.49,.4,1.1,.55,2.21,.45,3.36-.1,1.08-.31,2.14-.82,3.13-.39,.76-.68,1.59-1.03,2.44h5.17v-30.9c-1.22,.66-2.32,1.48-3.71,1.64-.18,.02-.35,.15-.54,.21-.9,.26-1.8,.59-2.72,.75-1.12,.19-2.27,.19-3.4,.35-.42,.06-.94,.24-1.18,.54-.51,.64-.89,1.38-1.28,2.11-.53,.97-.62,1.96-.19,3.03,.43,1.09,.73,2.23,1.11,3.34,.16,.49,.12,.92-.11,1.41-.8,1.66-1.58,3.33-2.29,5.03-.34,.82-.59,1.69-.76,2.56-.22,1.08-.25,2.19-.47,3.27-.42,2.04-.91,4.08-1.87,5.95-.42,.81-.93,1.57-.88,2.54h-20.42c0-.97,0-1.88,0-2.79,0-2.27,0-4.53,0-6.8,0-.7-.51-1.13-1.11-.98-.46,.12-.69,.49-.69,1.1,0,3.36,0,6.71,0,10.07,0,.94,.28,1.23,1.23,1.22,3.74,0,7.49-.03,11.23-.03,2.99,0,5.97,.03,8.96,.05,.26,0,.52,0,.81,0,.07,.5,.16,.96,.2,1.43,.1,1.15,.16,2.3,.29,3.45,.02,.21,.24,.5,.43,.57,.86,.3,1.74,.13,2.59-.07,.11-.03,.21-.22,.26-.35,.58-1.52,1.16-3.05,1.71-4.58,.12-.33,.26-.45,.63-.45,4.9,.01,9.81,0,14.71,0,.86,0,1.14-.27,1.14-1.12,0-8.84,0-17.68,0-26.52,0-1.82,0-3.65,0-5.47Zm-13.3,17.51c-.23,.17-.46,.47-.68,.46-.2,0-.5-.31-.57-.54-.1-.36,.2-.64,.54-.61,.24,.02,.47,.28,.71,.44,0,.08,0,.17,0,.25Zm-1.99-3.64c.29-.14,.64-.2,.96-.22,.1,0,.3,.24,.31,.37,.03,.68,.08,1.39-.43,1.94-.17,.18-.42,.33-.65,.38-.47,.1-.6-.09-.43-.54,.07-.18,.1-.37,.15-.54-.05-.23-.06-.45-.15-.63-.18-.35-.04-.62,.23-.76Zm-.31,4.33c.62,.18,.8,.55,.69,1.19-.06,.34-.04,.74,.08,1.06,.14,.4,0,.51-.24,.53-.63,0-1.17-.55-1.27-1.23-.05-.31-.08-.62-.09-.94-.01-.42,.42-.74,.83-.62Zm-1.96,6.81c-.45,.11-.55-.11-.43-.56,.09-.35,.11-.76,.02-1.11-.1-.39-.06-.68,.28-.84,.28-.13,.63-.25,.91-.18,.35,.08,.38,.45,.33,.79,0,.03,0,.07,0,.1,.04,.01,.07,.03,.11,.04-.17,.45-.3,.92-.54,1.33-.12,.21-.43,.37-.68,.43Zm1.02,.77c0-.09,0-.17,0-.26,.22-.17,.43-.44,.68-.48,.34-.05,.65,.22,.57,.58-.05,.23-.33,.55-.54,.56-.22,.02-.47-.26-.7-.41Z"/></g><g><path class="cls-23" d="M968.33,306.42c-1.4-.34-2.66-.91-3.39-2.24-.33-.61-.59-1.27-.79-1.93-2.21-7.56-3.52-15.28-3.93-23.14-.06-1.13-.56-1.51-1.61-1.63-.32,1.02-.69,2.09-1,3.17-1.78,6.23-2.49,12.58-2.32,19.05,.02,.82,.07,1.66-.1,2.45-.45,2.14-2.14,3.4-4.54,3.51-2.32,.1-4.41-1.31-5.09-3.51-.18-.57-.24-1.18-.26-1.78-.38-10.01,1.39-19.65,4.99-28.98,.22-.58,.52-.72,1.09-.76,2.6-.21,5.21-.37,7.78-.76,2.43-.37,4.01-2.38,4.02-4.7,0-2.22-1.64-4.43-3.82-4.85-.92-.18-1.91,.02-2.87,.06-2.34,.1-4.68,.23-7.02,.29-.34,0-.76-.25-1-.52-.58-.64-1.07-1.35-1.68-2.15-.85,.93-1.67,1.82-2.48,2.71,.03,.11,.06,.22,.08,.33,1.24,.24,2.48,.68,3.72,.68,2.96,0,5.94-.13,8.89-.35,2.38-.18,4.7,2.18,4.12,4.46-.4,1.54-1.61,2.43-3.06,2.66-4.66,.77-9.35,1.22-14.03,.1-2.34-.56-4.39-1.63-5.78-3.69-1.7-2.53-1.63-5.12-.18-7.72,1.11-2,2.74-3.55,4.49-4.97,2.26-1.83,4.68-3.39,7.46-4.37,3.63-1.28,7.04-1.08,10.55,.66,5.93,2.95,11.15,6.72,15.33,11.89,.71,.88,1.37,1.81,2.03,2.73,1.25,1.73,1.04,3.54-.53,4.73-1.72,1.31-4,1.15-5.28-.42-1.16-1.42-2.28-2.88-3.43-4.3-.37-.46-.82-.85-1.36-1.4,.47,1.37,.9,2.57,1.3,3.78,1.13,3.38,1.36,6.88,1.47,10.42,.25,8.14,1.52,16.14,3.85,23.95,.52,1.75,.48,3.39-.81,4.82-.75,.83-1.71,1.32-2.79,1.58-.13,.03-.26,.1-.38,.15h-1.6Z"/><path class="cls-23" d="M952.31,239.74c-.09,4.24-3.51,7.48-7.77,7.38-3.92-.09-7.28-3.6-7.19-7.54,.09-4.19,3.54-7.5,7.71-7.39,4,.1,7.34,3.58,7.25,7.55Z"/><path class="cls-23" d="M932.29,281.6c.16-.24,.29-.51,.48-.71,2.77-2.9,5.7-5.63,8.89-8.07,.1-.07,.18-.16,.28-.23,.48-.34,.96-.38,1.35,.1,.39,.49,.22,.95-.22,1.33-1.3,1.08-2.66,2.09-3.89,3.25-2.31,2.19-4.54,4.46-6.81,6.7-.15,.15-.27,.38-.46,.46-.33,.13-.74,.31-1.04,.21-.25-.09-.46-.51-.54-.82-.11-.38-.07-.8-.1-1.2-.06-.03-.12-.05-.18-.08-.95,1.29-1.94,2.56-2.84,3.89-.71,1.06-1.31,2.19-1.95,3.3-.38,.66-.83,.87-1.34,.61-.54-.27-.63-.79-.26-1.49,1.77-3.38,4-6.43,6.62-9.19,.23-.25,.76-.43,1.05-.34,.28,.1,.5,.57,.61,.92,.12,.37,.07,.79,.1,1.19,.08,.05,.16,.11,.25,.16Z"/><path class="cls-23" d="M932.11,272.49c1.46-.92,2.81-1.8,4.19-2.64,.64-.39,1.29-.75,1.98-1.05,.24-.1,.74-.07,.85,.08,.27,.39-.09,.61-.42,.82-2.21,1.36-4.42,2.75-6.63,4.1-.26,.16-.6,.19-.9,.28-.07-.3-.14-.61-.21-.91-.01-.06-.02-.13-.07-.4-1.03,1.04-1.98,1.99-2.91,2.94-.17,.17-.28,.43-.47,.54-.21,.12-.5,.12-.75,.17,0-.28-.12-.67,.02-.81,1.48-1.45,2.98-2.86,4.51-4.26,.15-.14,.52-.17,.71-.09,.14,.06,.17,.4,.2,.62,.02,.16-.04,.33-.08,.6Z"/></g><g><path class="cls-23" d="M682.48,265.42c5.1-2.15,10.01-4.45,14.42-7.86,.03,.25,.06,.41,.06,.58,0,14.11,0,28.22,0,42.33,0,1.84-.75,3.28-2.44,4.08-1.58,.75-3.11,.54-4.48-.54-.94-.74-1.45-1.73-1.53-2.93-.02-.34-.02-.68-.02-1.02,0-9.79,0-19.57,0-29.36,0-.29,0-.58,0-.9h-1.59v.82c0,9.97,0,19.94,0,29.91,0,2.64-1.95,4.57-4.46,4.45-2.14-.1-3.98-1.88-3.99-4.01-.03-8.38-.01-16.75-.01-25.13,0-.04,.02-.08,.05-.19,.13,.1,.25,.19,.35,.28,1.21,1.08,2.83,1.23,4.16,.4,1.3-.81,1.89-2.33,1.46-3.86-.6-2.14-1.22-4.28-1.83-6.42-.05-.19-.09-.39-.14-.62Zm-.64,19.44c0-.57-.48-1.05-1.04-1.04-.54,.02-.99,.48-1,1.02,0,.57,.47,1.04,1.05,1.02,.55-.01,.99-.45,.99-1.01Zm.33,7.29c.56,.01,1.01-.4,1.04-.95,.03-.58-.42-1.07-.99-1.09-.56-.02-1.06,.47-1.05,1.04,0,.54,.45,.99,1,1Zm9.28-3.3c.56,0,1.04-.48,1.03-1.04,0-.56-.49-1.02-1.06-1-.54,.02-.98,.45-.99,1,0,.57,.45,1.04,1.01,1.05Zm4.45,.32c-.02-.57-.5-1.01-1.07-.99-.54,.02-.97,.48-.98,1.02,0,.56,.47,1.03,1.04,1.03,.56,0,1.02-.49,1.01-1.05Zm-10.07-1.9c0-.57-.4-1-.96-1.02-.59-.02-1.07,.42-1.07,.99,0,.56,.49,1.05,1.04,1.04,.54-.01,.98-.47,.99-1.01Zm9.03-3.22c0-.54-.44-1.01-.98-1.03-.56-.02-1.05,.46-1.05,1.03,0,.56,.42,.99,.98,1.01,.59,.02,1.05-.42,1.05-1.01Z"/><path class="cls-23" d="M681.02,258.61c-.14-1.51-.31-2.89-.37-4.27-.06-1.38-.01-2.76-.01-4.2-.39-.09-.53,.18-.58,.68-.25,2.37-.1,4.73,.24,7.07,.09,.62,0,.98-.61,1.34-1.34,.78-1.76,2.07-1.54,3.63-.69,.01-1.47,.03-1.48,.95,0,.34,.31,.82,.61,1,.66,.37,1.08-.12,1.44-.69,.75,.87,1.64,1.39,2.79,1.41,.12,0,.3,.24,.34,.39,.65,2.22,1.29,4.45,1.92,6.68,.43,1.51-.36,2.98-1.8,3.42-1.46,.45-2.93-.29-3.42-1.8-1.35-4.17-2.49-8.41-3.27-12.73-.54-3.03-.92-6.07-.82-9.16,.08-2.54,.43-5.03,1.6-7.33,.74-1.45,1.74-2.65,3.24-3.44,1.22,1.37,2.67,2.36,4.45,2.78,3.2,.74,5.97-.09,8.18-2.49,.62-.67,1.19-.87,2.03-.85,3.33,.06,6.59,2.53,7.45,5.71,.53,1.97,.16,3.83-.8,5.59-1.16,2.12-2.88,3.74-4.78,5.17-3.53,2.66-7.46,4.59-11.48,6.37-.58,.26-1.16,.51-1.76,.75-1.48,.59-3.04-.05-3.63-1.47-.58-1.39,.07-2.89,1.49-3.58,3.1-1.51,6.26-2.93,9.26-4.62,1.76-.99,3.32-2.37,4.87-3.7,.63-.54,1-1.39,1.44-2.12,.13-.21,.11-.51,.16-.77-.07-.05-.14-.09-.2-.14-.19,.21-.39,.42-.57,.65-.71,.9-1.3,1.93-2.13,2.7-2.36,2.18-5.18,3.68-8.04,5.08-1.36,.67-2.75,1.28-4.22,1.97Zm-2.66-.89c.56-.02,1.03-.51,1-1.06-.03-.56-.53-1.01-1.09-.98-.54,.03-.96,.49-.96,1.03,0,.57,.47,1.03,1.04,1.01Zm-.5,1.74c0-.56-.49-1.05-1.05-1.04-.54,.01-.99,.46-.99,1.01,0,.56,.42,1,.97,1.03,.58,.02,1.07-.43,1.07-1Zm2.95,7.76c.01-.55-.41-1.01-.96-1.03-.59-.03-1.06,.4-1.07,.99-.01,.57,.46,1.06,1.02,1.05,.53,0,1-.47,1.01-1.01Z"/><path class="cls-23" d="M678.08,236.24c-.03-4.22,3.4-7.7,7.62-7.75,4.27-.04,7.74,3.36,7.79,7.65,.05,4.25-3.41,7.76-7.66,7.78-4.27,.02-7.73-3.4-7.76-7.68Z"/><path class="cls-23" d="M669.94,260.18c0-.94,.37-1.73,.97-2.41,.11-.12,.38-.1,.57-.14-.01,.18,.03,.4-.05,.54-1.15,1.9-1.13,2.27,.2,4.15,.09,.13,.04,.35,.05,.53-.18-.03-.42,0-.54-.1-.75-.69-1.19-1.54-1.2-2.58Z"/><path class="cls-23" d="M672.18,272.97c.04-.22,.08-.63,.18-1.03,.03-.11,.22-.18,.34-.28,.1,.13,.23,.25,.28,.39,.04,.12-.02,.27-.03,.4-.22,1.67,.34,2.65,1.87,3.28,.04,.02,.1,.01,.13,.04,.12,.16,.23,.33,.35,.49-.19,.05-.41,.18-.58,.14-1.43-.33-2.51-1.74-2.52-3.45Z"/><path class="cls-23" d="M671.61,259.87c.13-.3,.33-.8,.58-1.27,.07-.12,.33-.14,.5-.21,.03,.18,.15,.42,.07,.53-.66,.94-.57,1.77,.26,2.55,.09,.09,.05,.31,.07,.47-.18,0-.41,.07-.52-.02-.59-.45-.89-1.08-.96-2.05Z"/><path class="cls-23" d="M674.61,272.5c-.18,.97,.18,1.47,1.05,1.86,.19,.09,.31,.34,.46,.51-.24,.03-.51,.15-.71,.09-1.09-.34-1.71-1.25-1.6-2.39,.02-.27,.25-.51,.39-.77,.14,.23,.28,.46,.42,.69Z"/></g><g><path class="cls-23" d="M442.84,266.73c-.79,2.23-.78,4.39,0,6.61h-.83c-8.13,0-16.25,0-24.38,0-.23,0-.47-.01-.69,.02-.57,.09-.95,.54-.96,1.08,0,.55,.36,1,.93,1.1,.23,.04,.46,.03,.69,.03,5.68,0,11.37,0,17.05,0,1.45,0,2.66,.89,3.12,2.23,.45,1.32,.03,2.76-1.06,3.64-.67,.54-1.44,.74-2.29,.74-5.62-.01-11.24,0-16.86,0-.21,0-.42-.01-.63,.02-.56,.08-.95,.54-.96,1.08,0,.55,.36,1,.93,1.1,.23,.04,.46,.03,.69,.03,4.36,0,8.72-.01,13.07,0,2.35,0,3.93,2.13,3.24,4.31-.44,1.38-1.69,2.29-3.21,2.29-4.4,0-8.8,0-13.2,0-.25,0-.51,0-.75,.07-.52,.16-.8,.54-.78,1.09,.02,.52,.3,.87,.8,1,.24,.06,.5,.07,.75,.07,3.14,0,6.27-.01,9.41,0,1.61,.01,2.95,1.18,3.19,2.7,.26,1.63-.58,3.14-2.1,3.68-.39,.14-.82,.21-1.23,.21-9.35,.01-18.69,.04-28.04,0-6.48-.03-11.86-4.73-12.81-11.12-.09-.62-.1-1.26-.1-1.89-.01-2.13,.05-4.25-.02-6.38-.16-5.01,2.06-8.77,5.98-11.67,3.04-2.26,6.11-4.48,9.13-6.76,3.59-2.7,6.8-5.84,9.99-8.99,1.23-1.21,2.49-2.39,3.69-3.63,.45-.46,.68-.34,1.03,.07,2.17,2.56,1.97,6.31-.52,8.6-2.32,2.14-4.68,4.24-7.01,6.37-.16,.14-.32,.27-.46,.43-.58,.66-.26,1.63,.6,1.82,.24,.05,.5,.04,.75,.04,10.97,0,21.94,0,32.91,0h.89Z"/><path class="cls-23" d="M448.29,266.76c1.47-.15,2.62,.3,3.37,1.5,.74,1.17,.73,2.4-.02,3.57-.77,1.19-1.91,1.63-3.37,1.47,.79-2.18,.79-4.35,.02-6.54Z"/><path class="cls-23" d="M445.58,273.51c-.27-.4-.48-.61-.59-.87-.75-1.75-.74-3.5,0-5.25,.1-.25,.36-.43,.55-.64,.19,.21,.46,.38,.56,.62,.76,1.76,.76,3.54,0,5.31-.06,.13-.15,.25-.22,.38-.07,.11-.14,.21-.3,.46Z"/><path class="cls-23" d="M445.56,293.06c1.1,2.3,2.16,4.41,3.1,6.56,.21,.49,.16,1.21-.04,1.73-.7,1.86-2.91,2.19-4.59,1.56-1.66-.63-2.17-2.25-1.34-3.95,.93-1.9,1.85-3.81,2.86-5.9Z"/><path class="cls-23" d="M445.56,280.45c.67,1.43,1.27,2.68,1.85,3.94,.06,.13,.08,.29,.09,.43,.04,.77-.33,1.28-1,1.59-.79,.36-1.88,.2-2.44-.37-.51-.52-.61-1.13-.31-1.78,.56-1.21,1.15-2.42,1.81-3.8Z"/></g><g><path class="cls-23" d="M160.07,268.96c-1.37,1.37-2.64,2.64-3.97,3.97-1.21-1.23-2.45-2.49-3.7-3.75-.55-.55-1.1-.66-1.65-.38-.89,.45-1.05,1.48-.31,2.24,1.09,1.12,2.21,2.22,3.32,3.33,.16,.16,.35,.28,.51,.4-.71,.69-1.33,1.3-1.99,1.94-1.04-1.04-2.13-2.13-3.22-3.22-.2-.2-.4-.41-.61-.6-.59-.55-1.34-.54-1.91,.01-.53,.51-.57,1.28-.02,1.86,.74,.78,1.53,1.52,2.29,2.28,.52,.52,1.02,1.05,1.5,1.53-.61,.6-1.24,1.22-1.91,1.89-1.16-1.18-2.41-2.43-3.65-3.69-.41-.42-.88-.65-1.48-.45-.99,.34-1.27,1.47-.52,2.27,1.06,1.12,2.16,2.22,3.25,3.31,.17,.17,.39,.3,.56,.43-1.43,2.06-3.08,2.42-4.89,1.12-1.06,1.07-2.16,2.12-3.2,3.22-.45,.48-.93,.8-1.57,.78-1.85-.05-3.23,.76-4.36,2.18-.58,.73-1.32,1.32-2.1,2.07-.22-.33-.47-.68-.71-1.03-.09,0-.18,0-.27-.01-.12,.19-.21,.41-.36,.56-2.67,2.68-5.35,5.36-8.03,8.03-.61,.61-1.23,.73-1.8,.38-.83-.51-.92-1.48-.18-2.22,1.52-1.53,3.07-3.03,4.59-4.56,1.31-1.31,2.6-2.64,3.93-3.99-.27-.28-.56-.59-.79-.84,1.08-1.12,2.12-2.25,3.22-3.33,.42-.41,.65-.84,.7-1.42,.06-.71,.15-1.42,.29-2.11,.06-.3,.23-.61,.44-.83,1.15-1.18,2.33-2.33,3.52-3.51-.64-.76-1-1.58-.74-2.51,.14-.49,.38-1.02,.73-1.37,4.09-4.14,8.22-8.24,12.34-12.36,.04-.04,.1-.07,.19-.12,.1,.16,.19,.3,.28,.45,1.53,2.55,3.75,4.17,6.68,4.67,1.8,.31,3.31,1.04,4.54,2.38,.34,.37,.74,.68,1.08,.99Z"/><path class="cls-23" d="M172.8,250.57c-1.69,1.69-3.27,3.27-4.89,4.9,.13,.14,.27,.3,.42,.46,1.25,1.25,2.5,2.5,3.75,3.76,1.25,1.26,1.31,2.85,.14,4-1.15,1.14-2.77,1.08-4.02-.15-.42-.41-.81-.85-1.24-1.31-1.66,1.66-3.26,3.27-4.97,4.98-.6-.65-1.11-1.27-1.68-1.81-1.35-1.28-2.94-2.11-4.78-2.4-2.65-.41-4.59-1.74-5.79-4.16-.07-.14-.16-.28-.27-.45,2.2-2.24,4.38-4.48,6.68-6.82-.5-.45-.98-.85-1.42-1.3-1.19-1.2-1.21-2.85-.08-3.97,1.13-1.12,2.77-1.1,3.98,.09,1.29,1.27,2.56,2.56,3.84,3.84,.14,.14,.29,.27,.4,.37,1.62-1.61,3.22-3.2,4.89-4.87-.3-.28-.65-.55-.95-.88-1.07-1.14-1.07-2.79-.02-3.84,1.03-1.03,2.8-1.11,3.87-.07,2.32,2.26,4.6,4.55,6.86,6.86,1.03,1.06,.98,2.85-.02,3.82-1.06,1.04-2.71,1.02-3.85-.06-.31-.29-.57-.64-.88-.99Z"/><path class="cls-23" d="M169.65,274.13c.62,1.23,1.14,2.42,1.79,3.54,.75,1.27,1,2.59,.97,4.06-.07,3.6-.02,7.2-.02,10.8v.69c.38,.03,.72,.04,1.06,.09,1.23,.17,2.16,1.1,2.34,2.32,.03,.18,.02,.37,.02,.55,0,.83,0,1.66,0,2.52h-12.36c.06-1.16-.01-2.33,.2-3.45,.21-1.1,1.05-1.75,2.18-1.94,.34-.05,.68-.06,1.08-.1v-.74c0-4.11,0-8.22,.01-12.33,0-.35,.09-.73,.25-1.04,.8-1.64,1.63-3.27,2.49-4.99Z"/></g></g></g></g></svg>